<?xml version="1.0" encoding="UTF-8"?>
<svg xmlns="http://www.w3.org/2000/svg" viewBox="0 0 1157.73 1649.81">
  <defs>
    <style>
      .cls-1 {
        fill: #862600;
        stroke-width: 0px;
      }
    </style>
  </defs>
  <g id="Layer_3" data-name="Layer 3">
    <polygon class="cls-1" points="89.7 1689.7 -86.47 1692 -79.77 205.28 51.14 204.07 89.7 1689.7"/>
  </g>
  <g id="Layer_1" data-name="Layer 1">
    <path class="cls-1" d="m1150.33-716.12l14.22-4.6-19.4-7.59,4.63-7.66c.77-1.27-1.8-3.73-3.1-5.59l4.57-6.15-48.77.98-26.86-12.37,3.32-7.52c-7.85-3.9-14.66-12.27-13.29-18.6,23.86-1.16,41.52-2.64,68.49-6.61-10.13-5.69-18.52-7.52-28.12-9.6.55-6.12,1.75-21.58-5.17-24.64l-18.31-3.9c-17.88-3.8,31.06-37.16-15.53-52.41l-25.56,3.55c14.28-12.16,23.11-23.27,13.24-38.32l-17.22,22.85c-43.43,2.99-15.2,27.21-57.98,16.56l22.01-10.51c4.47-2.15,1.47-14.55-3.27-12.55l-16.18,7.28c-2.56,1.16-9.05-4.11-11.33-5.91l-26.43-20.42c-4.36,3.9-25.45,17.54-33.08,13.36-12.91-7.1-16.73-8.54-30.68-3.59-10.79,3.83-7.52,14.94-3.38,19.51,1.04,1.16,1.63,5.52,1.96,6.82.33,1.26-6.38-3.52-7.52-5.1l-25.72-34.94-17.44,8.19c-3.32,1.55-12.7-3.52-15.86-5.13l-10.84-5.62c-2.23-1.16-7.3,3.9-11.99,7.24-3.7-7-5.5-16.94,1.04-24.99,6.7,7.1,22.94,17.72,30.3,13.43,16.89-9.77,23.21-24.26,21.85-35.75l-20.27-.81c7.14-14.27,48.28-16.14,44.9-23.69l-5.78-13.01-28.06,17.19c-1.09.67-11.55-.53-10.46-1.23l7.85-4.99c-2.4-4.36-9.21-12.13-15.26-17.79l-7.14-6.71c-1.2-1.12,7.74-7,5.72-7.42-8.39-1.76-27.57-3.3-37.11-3.48l-9.48-6.4c-9.1-6.15-18.42,14.03-24.63,10.16-15.59-1.93-18.42-2.39-5.78-2.21,10.08-14.24,15.97-27.03-11.55-34.98l-10.46,29.11-8.72-4.85c-2.18,2.28-7.96,9.77-8.66,12.66,25.67,21.9-17,55.61-16.51,42.47,0-1.16.38-2.53,1.09-5.13l1.85-6.93c.27-1.12-3.71-1.3-4.52-.32l-4.74,5.62c-2.07-4.5-3.54-7.52-1.42-9.04l11.66-8.26c-29.15-1.58-43.98,8.16-71.71,17.86l27.19-22.88c-8.83-5.31-23.43-6.57-31.88-4.39-6.65,1.69-3.92,15.61-6.65,19.76l-18.47,28.26-27.9-7.8,29.43-18.98-20.16,1.37c-.38-.39-.82-.77-1.25-1.2-12.04-18.28,14.17-12.83,11.5-30.3-12.26.28-24.85.04-31.44-.81,8.77-8.75,13.68-12.27,14.06-15.99.16-1.41-8.83-4.96-7.41-6.05l9.81-7.59s-6.54-3.13-6.43-3.06l-18.36.91c-2.56.14-4.25,5.45-5.89,7.49-1.36,1.72-9.26.91-12.32.88-3.05,0-3-2.5-2.94-8.68-21.52,4.36-47.84,2.35-72.75-.67l34.82-21.55-57.82,10.27,8.55-18.98-12.86,7.91c-1.8,1.12-5.45-1.72-5.12-3.24.22-1.02,1.47-6.22.05-6.71-28.77-10.72-36.46,35.58-51.77,26.29l-8.23-21.87c1.8.25,6.65.95,12.42,1.76l.93-17.89c-5.67.7-26.97,1.44-26.81-2.81l.76-18.67c-18.42,1.41-39.78-.49-57.33-8.26l-16.24,3.45c-4.52-1.27-6.98-2.46-8.72-1.79l-11.44,4.22,8.99-12.41c1.2-1.65,4.03-8.51,1.31-7.98l-9.37,1.79-14.93-19.76-36.4,1.83-16.95,13.36-16.78-17.44c-9.15,9.91-7.57,14.94-3.38,25.7l-17.87-2.25c-4.9-.63-16.51-6.12-19.94-3.76l-14.93,10.16c-8.66-5.13-22.12-7.17-31.82-4.64l1.63-16.31c.27-2.67-15.26-3.73-16.57-2.81-1.31,12.97-8.88,22.08-26.37,27.35-11.5,3.45-27.68-3.34-39.23-11.99l-11.39,3.83c-3,1.02-9.15-1.97-15.31-3.87l-11.5,7.98c-2.23,1.55-4.63,2.85-5.89,1.79l-5.12-4.32-15.26,21.48c-4.58-2.88-9.59-7.42-10.46-5.94l-6.98,11.81-13.02-8.68c-3.38-2.25-1.63-9.14-.76-13.39l-27.19,8.79,35.48-23.24-3.81-11.57c-.65-1.93-8.01,3.97-11.83,6.47l-9.81-15.99c-5.72-.1-13.68.91-15.53-.77l-8.39-7.66c-10.14,8.05-20.54,18.1-34.99,15.64-8.66-1.48-21.47-6.08-29.15-9.28,10.84.63,23.92,1.2,27.41-1.83,2.89-2.53,4.9-9.17,5.12-12.13-8.23,2.46-15.42,7.1-18.36,5.24l-14.99-9.39-14.66,25.66-19.62,5.94-11.33-12.27-32.15,4.18,16.46,22.89c1.53,1.62,10.79,7.14,8.07,6.4-2.07-.56-9.48,3.16-9.97,4.53-1.04,2.88-.27,8.93-3.71,9.63l-17.44,3.59,34.28,2.74-19.07,6.61-11.99,4.18c6.1-2.11-47.84-2.95-40.98-15.89l33.78-6.72c-13.19-1.05-29.53-1.44-44.96-1.33-27.36.18-38.36-30.58-46.54-21.73l-4.14,4.43-18.69-19.51-16.46,14.1c-3.16-4.36-5.45-11.35-9.54-11.32l-18.04.14-13.24.28c-2.72.07-4.58,5.41-5.99,7.77l-33.79-.46-4.03,21.69c-.93,4.99-8.77,10.23-18.58,12.45l5.78-21.66-23.87-19.02c-2.4-1.9-3.21-3.3-5.45-3.13l-8.77.74,2.13-16.38-46.65,14.91c-42.4-26.08-10.35,15.29-41.85,22.5l-46.92-9-9.48,19.97c-1.74,3.66-14.55,5.03-25.18,5.03l.87,11.11-37.82-4.22c13.02,6.71,22.07,10.62,35.53,16.17l-14.88,4.08c-1.85.53,19.29,15.99-9.26,32.48l-43.43-32.03-29.97,25.21,19.18,1.27c1.36.91,5.45,6.05,2.94,7.42l-12.59,6.85c5.29,6.19,9.65,11.07,9.26,16.14-27.08-12.2-38.31-26.29-70.46-21.16,64.03,21.8,22.61,24.08,52.15,35.33,5.56,2.11,14.93,5.2,12.32,6.36l-14.71,6.5-19.56-26.12c-7.52.63-21.91,4.53-25.61,7.66-3.54,2.99,5.67,8.65,12.97,12.94l-16.51,3.76c10.79,5.17,19.4,11.04,11.33,16.31-5.56-.74-14.22-5.52-24.52-11.25l-21.96,16.52,56.56,5.24c-9.92,7.35-12.86,11.78-13.62,18.24l-16.08,9.98c25.56,2.78,45.94,6.08,62.45,14.13-28.23,5.27-41.25,8.51-67.95,8.47,14.71,7.49,33.4,11.81,57.27,12.02-5.67,3.94-14.93,10.05-19.73,12.69-4.14,2.28-18.47-4.99-19.02-5.17,1.09,12.51-48.28,21.34-59.34,23.24-10.46,1.79-24.9,15.96-23.32,21.13,8.28,6.19,21.2,16.7,13.84,18.49l-13.41,3.3c-1.53.39,0,.95,1.36,1.93l6.27,4.71-51.44-10.44,23.05,20.28-23.7,7.49c-4.63,1.48-17.22-4.96-21.96-6.26l-24.52,8.54,26.26,12.16c4.47,2.18,8.12,14.48,2.67,15.57l-19.56,3.83-11.5,26.23-5.01-13.85c-.98-2.78-11.88-4.5-16.68-6.29l-3.05-23.66-36.46,20.32,21.2,17.93,21.91-2.46-21.91,15.61-25.77-14.97c4.25-4.47,7.52-8.4,4.14-6.61-12.59-2.46-15.75-3.52-15.8-1.51l-.28,7.77-.43,26.01c-9.54,4.32-11.23,4.85-8.67,5.06,1.69.14,8.61,2.32,9.54,3.23l17.6,17.33c-1.2,1.69-11.77,9.42-8.23,10.37l16.95,4.46c-1.58,3.83-1.04,12.55,2.29,14.13,21.69-5.91,41.09-4.89,57.27,3.09l29.64,14.59,27.14-18.14c1.25-.84,3.87-6.68,4.9-5.8,14.71,13.11,24.79-2.14,29.54,10.27,2.4,6.26-3.33,13.22-14.71,16.28l1.69,21.87-6.43,5.87c-1.25,1.16,11.66,3.02,11.5,4.43l-3.32,33.01c-16.13-8.96-23.87-23.03-30.24-35.01-22.34-.14-30.95-13.08-41.74-23.24l-17.61-16.56c-13.02,5.59-19.56,8.12-29.8,10.76l-24.25,6.26-37.55,15.43,7.36-12.94c.98-1.69-11.01-2.88-14.39-3.52-10.57-1.41-15.37-.81-6.37,3.94l7.63,30.66,17.27-14.41s5.94,6.65,8.56,5.24l13.29-7.17c3.92-2.11,11.01-6.68,13.08-4.82,1.58,1.41,5.99,6.61,8.72,7.03l32.15,4.78c6.97-.95,9.26-.67,5.18,2.46-2.89,5.31-3.38,17.23,2.45,18.49,4.69,1.02,11.28-2.85,18.14-4.25,4.64-.95-2.72-7.28-5.93-14.55l23.32,14.06c3.87-5.13,6.97-10.9,9.75-9.88,2.73,1.05,8.99,4.11,7.09,5.73l-7.03,5.91,13.84,14.13c-9.97,2.95-20.87,5.62-19.29,8.26l6.92,11.67-23.92.77,7.41,18.39-37.22-1.51,11.28-17.96-17.44-15.33c-5.61,4.6-11.61,10.97-15.8,9.84l-22.4-6.15c9.32,11.88,18.36,21.55,28.01,30.41l-24.03,13.32,9.53,3.8c1.69.67-3.26,3.24-3.59,2.99l-26.81,3.9,6.86-5.55c1.48-1.2-.11-5.77-2.45-5.27l-13.84,2.85c-9.15,1.86-12.91,9.98-10.79,16.66,2.4,7.73,14.22,7.56,24.09,3.2l12.58-5.59c18.42-8.16-8.82,19.44,0,23.1l23.82,9.88-20.38,9.56,21.63,10.37-22.83,13.29c-7.74-4.5-13.68-7.56-20.33-9.95-4.63-1.69-8.61,3.73-12.31,8.65-2.62,3.52,2.12,7.38,9.7,12.73l-13.35,3.48c1.85,1.16,11.28,7.45,8.17,9.49l-10.73,7,13.02,13.32,36.73-12.58c5.88,12.87,4.9,21.65-2.29,29.92,1.52,1.79,9.04,6.93,6.27,7.66-46.32,12.34-22.46-9.21-56.95,13.82l-36.51,3.9-2.72-16.98c-.33-2.11-17.22-1.16-16.19.84l4.69,9.03c2.23,4.36,9.64,13.04,18.31,14.59l-.38-.18c5.94,1.05,12.8-.35,27.24-1.41l-13.4,8.09c-1.64.98.71,3.34,2.56,5.2,7.52-.28,17.93-2.36,20.54.11l10.95,10.23,9.7-4.15c2.62,3.38,16.19,14.17,23.11,12.97,11.72-2,26.65-13.01,33.68-19.26l19.72,9.56-3.16-10.12c-.32-1.09,5.51-1.41,7.09-.98l11.99,2.99-3-14.2c25.12.6,48.55,7.49,60.81,19.51l49.21-12.27c10.08-2.5,26.21-11.11,40.05-7.1,8.56,2.46,15.26,6.75,29.53,16.1-11.44,5.66-63.76,13.82-65.17,12.83-1.8-1.23-7.85-5.2-5.5-5.8l17.66-4.5-50.08-2.25c8.77,12.34,12.42,17.79,12.37,28.97l4.25,5.2c1.64-.35,2.89-.67,3.87-.88l-8.72,17.54-10.14-18.77c-4.79,2.18-12.26,7.03-13.62,5.2l-9.81-12.73-14.77,14.17-44.85-6.4-2.78,20.57c-.65,4.75,20.33,7.42,28.12,4.92l14.61,10.12c14.11-1.41,32.91-9.25,43.49-15.82l16.67,4.15,25.18-5.45-17.16,18.14c34.11-7.24,44.08,1.51,61.63,13.22,14.93,9.95,23.87,23.27,11.5,40.92l18.85,7.66c-39.18,4.64-28.34-5.48-49.15,6.43-2.13,1.23,5.45,3.13,8.23,3.52l13.19,1.83-19.13,12.69,41.41,9.25-23.16,6.47c10.52,2.64,21.2,2.32,21.52,5.34l1.69,16.07,13.41.74,1.8,11.11c8.67-.56,30.95-3.73,39.02.07l28.01,13.36-23.81,7.88,23.54,20.64c2.56,2.22,7.85,10.3,4.25,11.67l-15.48,5.91,20.6-.6c3.54-.11,2.4,9.32,4.52,10.83,11.83-.14,33.29-.7,46.1-1.34l23.27-1.16c8.55-.42,25.07-3.69,33.79-5.24l5.18-8.44c.55-.91,4.03,3.2,4.85,4.04l4.69,4.96c8.23-3.2,16.51-5.8,25.77-7.8l15.64-3.38c11.17-2.39-8.83.53-14.99-19.79-.82-2.67,13.79-3.48,16.73-1.55l10.24,6.65,9.37-9.91c3.54,3.34,8.45,9.1,4.85,9.77l-17.77,3.27,9.7,19.51,25.56-13.68c3.27,8.54,5.34,13.18,6.32,17.26.93,3.87-10.03,11.57-13.79,13.43,7.85,4.6,13.41,9.67,3.22,6.08l-12.81,2.46c-1.25.25.16,1.9,1.09,2.5l4.85,2.95-18.53,4.32c-3.65.84-.33,7.8,1.91,9.88,2.23,2.07,10.03,5.69,12.37,3.73,4.63-3.9,8.94-9.63,11.93-8.4l18.64,7.77-2.83-18.46,54.6,15.75c-.33,6.01,1.42,16.63,5.78,18.88,23.22-13.6,47.57-18.1,71.22-8.19,6.65-2.95,14.33-8.68,19.78-6.82l25.56,8.72c12.04-10.2,33.89-14.8,53.95-12.48-9.05-6.4-11.83-11.78-8.83-20.04l26.05,11.14c-15.26-31.22,57-37.97,21.85-53.33-5.12-2.21-18.25-2.81-20.65.74-2.61,3.87-7.74,12.09-12.32,13.29-7.19,1.9-22.29-7.56-21.2-12.23,1.31-5.52,12.21-10.19,23.54-13.29l26.76-28.58c2.78-.21,14.49.56,13.68-1.37l-3.49-8.54,25.72-8.05,17.44,16.38c1.25,1.2.38,6.64-1.85,6.36l-11.33-1.34-10.03-1.2c-1.96-.25-5.12,3.87-3.38,4.5l8.5,2.99c-7.14,4.36-10.79,9.14-14.66,16.21l-8.39,15.33,37.16-6.33c3.92-.67,15.1-4.32,14.49-6.64l-2.07-8.72c32.59,9.46,50.68,20.64,65.83,40.95,13.79,18.46,45.17,36.14,47.63,57.97,5.45,48.3,13.73,99.87,10.3,147.89l-7.25,151.51,134.82-51.43c-15.26-59.34,5.12-152.78,2.67-213.21,25.18-28.23,51.06-56.81,81.09-81.35,23.11-18.88,45.12-35.86,57.82-58.36,8.12-14.41,23.54-21.87,51.5-15.33l-29.97,15.64,3.98,22.04c.38,2.15,4.74,6.85,6.65,8.51,1.91,1.65,9.97-3.76,12.48-5.77l23.71-18.84c3.54-2.81,16.18,9,17.71,11.99,5.23-.7,13.62-3.38,18.04-2.07l19.95,5.91c-3.92-6.78-8.99-11.88-16.08-18.46,12.81-.28,20.16,9.77,24.2,20.18l27.41-19.12c2.72,2.04,6.65,7.63,8.72,6.33,2.07-1.3,9.32-6.15,11.83-7.03l35.04-12.48c-6.87,13.08-13.57,20.74-25.88,33.4,46.1,22.22,8.45-2.92,61.36,21.44l-42.89,18.88c25.01-3.13,40.22,1.65,52.64,13.74,20.16-17.75,73.67-6.08,80.92-24.04,1.53-3.73,2.51-10.02.54-12.34,2.4,2.85-32.42-22.81-50.13-20.53,22.72-5.27,22.07-22.75,27.57-16.07l5.56,6.75,54.33-8.44,12.04-1.86c2.62-.42-.38-5.1-1.69-8.51-.87-1.72-1.8-3.06-.71-2.5,1.36.7,6.48,3.06,7.74,3.8l24.52,14.17,33.62,19.3c4.58.88,14.49.74,17.28,2.92l12.75,9.88,3.32-14.17,6.48,5.59c1.14-3.41,1.96-6.85,2.23-10.44.22-2.71,1.14-5.1,2.62-7.17l-13.19-7.87.21-.12,12.98,7.75c5.29-7.59,17.82-11.04,31.88-9.77h.05c1.36.1,2.67.28,4.03.46,9.92-4.25,25.23-4.71,35.69-.42.6-.7,1.2-1.34,1.8-2,.29-.66.45-1.41.46-2.22.02.9-.12,1.72-.46,2.47,5.34-5.59,12.43-10.05,20.76-12.73-.93-3.38-1.58-6.78-1.91-10.33-.55-6.12,5.94-12.37,14.66-15.61-2.83-7.52.05-16.1,11.88-19.97,21.03-6.85,43.43-9.46,65.88-12.3,4.63-9.56,14.22-16.59,31.5-20.25,11.93-2.53,21.2-4.68,29.21-7.77-7.92-2.69-14.32-9.7-14.82-16.38.62,6.6,6.98,13.49,14.82,16.17l-.05-.04c1.25-.49,2.45-.98,3.65-1.51-1.31-3.9-.54-8.09,3.22-11.85,2.01-2.02,4.08-4.03,6.3-6.02l.19.04c.98-.88,1.96-1.76,3-2.67-12.64-7.35-22.4-10.83-34.33-15.26l11.06-6.93-26.21-2.74c15.42.21,20.49-4.43,21.63-11.07.54-3.27-2.45-9.18-5.78-14.17-1.91-2.88.98-11.53,6.38-13.32l11.83-3.9c10.08,4.78,23.7,9.84,29.04,7.07l19.94-10.37c2.18-1.12,14.6-.25,13.19-1.9l-8.39-9.77,28.5-20.14c-5.89-12.62.98-24.29,19.45-29.92l2.02-5.91c2.51-7.31,21.63,10.27,29.75-7.49l-44.52-21.2,33.3,2.57-11.61-14.66,9.26-.56c9.27-.56-8.28-13.92,1.09-21.44,3.65-2.95,13.41-8.05,16.51-11.28l13.9-14.52c2.56-2.67-1.69-11.64,1.96-13.78l20.98-12.2-44.19-6.72c-.93,2.46-2.02,5.66-2.18,5.77-1.04.77-6.38,0-8.12-6.19-4.2-14.94,28.72-12.48,20.98-18.42l-6.87-5.27c9.92.74,19.89,3.09,19.24.88l-2.78-9.32c-.87-3.02-2.02-11.71-2.29-15.68-.16-2.46,8.94-2.35,10.79-3.06-3.49-6.57-2.89-18.42,4.8-19.19l29.15-2.95c-2.89-3.83-10.03-9.07-7.58-11.35l11.28-10.62c-1.96-6.71-21.25-18.53-31.82-17.4-6.76.7-17.87,1.12-22.45.07-5.12-1.2,7.14-14.17,11.93-15.43.71-.18-7.9-1.9-10.4-2.5-4.75-1.09-13.19-7.24-10.85-10.05,1.85-2.25,8.94-8.23,12.59-9.18l31.28-8.01,26.65,9.35-8.23-11.78c-1.09-1.55,3.81-4.04,6.43-4.15l13.18-.53,1.75-16.35c.22-2.04-7.69-7.66-4.74-8.65Zm-2174.33,228.33c2.01-3.59,20.59-3.9,23.54-.6,2.94,3.3,8.39,13.11,6.1,14.27-9.65-.46-20.65-1.3-25.78-2.14-4.63-.77-5.77-8.09-3.86-11.53Zm37.22,93.05c-.54,1.34-4.47,1.41-7.57,2.11-3.16.74.49-4.68,3-10.19-.49-.74-9.7-1.09-11.17.6l-7.85,9.07-42.23-14.91,18.31-14.69v.04l50.4,20.74-2.89,7.24Zm18.47-379.73h-.05l4.96-12.69c14.11,2.88,22.23.32,33.4-4.04.82.84,5.18,5.94,8.01,6.68l13.84,3.66-60.16,6.4Zm70.35-85.46l-10.13,5.45c-3.76-3.34-12.1-9.25-14.6-12.48l-15.26-19.9c-1.14-1.48,1.25-8.4,3.71-7.87l-.05-.04,13.62,3.02c3.21.7-3.05,4.46-6.32,7.98l18.53-1.65c2.51-.21.11,5.38.44,6.61l25.94,17.65c-8.61.46-13.41-.11-15.86,1.23Zm148.6-105.85l-20.11-.46c-20.81-.46,15.03-15.22,1.21-34.27l19.94,3.22-1.04,31.5Zm193.83-148.31c-13.08.91-24.41,2.18-30.52,4.82-1.74.74,6.7,5.34,5.23,6.29l-10.35,6.75c-2.02,6.96,23.27,10.55,28.5,16l27.19,28.26c4.03,4.32-20.92,11.53-26.32,7.66l-28.5-20.46,4.74-5.1c1.25-1.34,2.34-7.1,0-6.78l-14.11,1.9-18.09-25.59c4.25-11.32,17.55-17.58,35.15-24.5l27.08,10.76Zm-60.21-44.58h.05l28.01,13.25c3.76,1.79-7.74,11.99-12.15,11.21-4.36-.77-10.95-3.66-15.69-6.57l-13.24-8.26c-2.89-1.83,9.81-11.18,13.02-9.63Zm-56.24,40.39l.05-.03-1.31-21.06,29.92,12.73-5.12,23.06,18.8,3.02-2.89,26.93-9.05-5.03c-2.23-1.23-6.65-1.58-9.81-2.04l2.72-9.32c.71-2.39-7.63-4.78-11.01-5.1-1.64,11.32-3.16,12.83-7.57,6.08l3.71-14.24c.98-3.76-9.37-3.83-17.44-4.85l-8.12-8.47c-1.69-1.79,16.51-.14,17.11-1.69Zm-2.78,206.74l-6.21,7.42c-1.31,1.55-9.64-2.29-8.88-3.97,1.8-4.11,7.79-9.98,13.4-10.76,6.87-.95,20.93,4.01,22.72,7.98l7.85,17.4c-12.81-6.75-19.4-11.07-28.88-18.07Zm90.02-69.01l-.11-.04c-16.67-6.5-34.49-7.8-62.23-8.47.05,2.46,1.85,9.56,6.59,10.65l25.5,5.7-23.81,17.61c-1.8,1.34-14.22,1.34-16.95,1.44-3.6.18.16,6.01.49,11.81-21.09-5.91-20-23.8-2.78-35.47l-14.82-.46c-3.49-.11-9.26-8.72-7.96-10.97l22.12-39.2c6.05-10.76-2.67-26.79,22.07-32.45l27.41,16.8c2.45,1.51,18.31,1.72,17.93,3.9l-1.96,11.04c-2.34.46-14.01,1.12-18.96.84-5.67-.32-12.86-7.77-20.49-11.39-8.72,8.05-7.08,16.63-5.78,30.02l27.08-3.8,1.96,16.28,15.53-6.05c-4.85,1.9,26.81,12.62,9.16,22.18Zm62.01-37.48c-19.78,12.02-45.45,23.45-66.81,9.21,57.87-14.34-2.45,1.37,53.13-20.88,2.78-1.12,7.3,5.76,11.82,9.13-2.76-13.37,1.18-21.62,24.31-31.42l-18.26-2.53,12.32-2.81c2.29-.53,9.59-2.21,7.85-3.3l-8.99-5.55c4.63-1.05,13.9-2.74,14.11-.6,2.62,25.42-3.32,32.83-29.48,48.76Zm233.07-31.88c-4.47-3.69-7.85-7.42-8.83-6.4l-8.39,9.21c-2.45,2.67-6.59,10.41-9.15,9.14l-9.92-4.92c-2.56-1.27,4.03-7.03,7.08-8.61,12.48-6.47,26.59-9.88,40.38-1.3l-11.17,2.88Zm12.37-34.87c-4.3.39-15.42,1.65-18.96,3.27l-22.07,10.3-2.18-15.75,26.05-1.41-20.65-6.99v-.04c13.62-3.45,33.02-4.01,40.98-.39,2.67,1.2,0,10.69-3.16,11ZM120.35-148.56c-3.16-.35-12.15-4.92-14.06-3.27l-9.26,8.12c-25.83,22.57-54.11,47.7-42.78,75.75,0,0,0,0,0,0-11.33-28.05,16.95-53.19,42.78-75.76v-.04l9.26-8.12c1.91-1.65,10.9,2.92,14.06,3.27l18.09,2.11c1.45.17,2.19,1.18,2.39,2.58m253.92-76.45c17.3-.35,35.61-4.72,35.94-7.12.44-3.34-2.07-11.32-3.87-14.48-1.8-3.16-16.57-.88-21.25-2.35-4.25-1.32-12.64-4.04-17.12-4.06,4.47,0,12.9,2.73,17.17,4.06,4.69,1.48,19.45-.81,21.25,2.35,1.85,3.2,4.31,11.14,3.87,14.48-.33,2.4-18.67,6.77-35.99,7.12Zm66.72,38.76l-37.91,15.07-.07-.03,37.93-15.08h.05v.04Zm27.9,13.74c-.98-1.83-9.26-3.97-10.35-2.21l-5.23,8.47c-1.64,2.64-12.37-2.18-12.32-5.06h0c.02,2.88,10.68,7.65,12.31,5.02l5.23-8.47c1.09-1.76,9.37.39,10.35,2.22,0,.01.01.02.02.04h-.02Zm51.33-8.3s0,0,0,0l35.65-7.37c-3.92-8.45-12.72-11.4-22-10.84,9.3-.57,18.13,2.37,22.06,10.84l-35.69,7.38Zm169.31-764l12.37,6.61c2.78,1.48-12.81,5.84-14.28,4.25l-11.33-12.27,26.76-16.07v-.03l26.27,3.3-17.06-11.74,63.87,11.25c-26.48,15.85-48.34-2.07-86.59,14.69Zm106.1,695.49c-.27.21,4.85-3.69,6.43-4.89.25-.2.44-.45.58-.75-.14.3-.33.55-.58.75-1.55,1.17-6.47,4.92-6.43,4.88h0Zm33.68,8.51l-33.67-8.5h.04l33.63,8.5h0Zm-18.53-35.89c6.87-.32,14.33,1.02,14.93-.6l4.2-12.06s.03.02.04.03l-4.19,12.03c-.6,1.62-8.07.28-14.93.6,9.48,19.79,37.98,10.37,31.17,20.14-1.03,1.52-3.11,6.56-5.35,6.38,2.22.09,4.28-4.88,5.3-6.39,6.81-9.77-21.69-.35-31.17-20.14Zm27.79,28.48h0c3.73.29,7.34.55,10.89.76-3.55-.21-7.16-.47-10.89-.76Z"/>
  </g>
</svg>