<?xml version="1.0" encoding="utf-8"?>
<!-- Generator: Adobe Illustrator 28.0.0, SVG Export Plug-In . SVG Version: 6.00 Build 0)  -->
<svg version="1.1" xmlns="http://www.w3.org/2000/svg" xmlns:xlink="http://www.w3.org/1999/xlink" x="0px" y="0px"
	 viewBox="0 0 1157.7 406" style="enable-background:new 0 0 1157.7 406;" xml:space="preserve">
<style type="text/css">
	.st0{fill:#862600;}
</style>
<g id="Layer_2">
	<path class="st0" d="M-194.9,159.5c-26,5.2-24.1,12.4-46.6,19.2c-87.1,26.4-109.5,55.3-127.8,62.6C-456,276.2-540,248.1-596.8,293
		c-21.8,17.3-45.7,28.5-75.7,39.9l-36.5,33.6c-49.3,45.5-99.3,22.7-120.7,54.1l93.9-24c35.4-9.1,56.8-31.3,85-46.6
		c26.3-14.2,53.1-26.3,76.8-42.1c25.9-17.1,59.9-23.3,96-24.1l43.5-1c-39.4,35.3-78.2,64.6-130.5,87.1c-24.8,10.7-43.1,25-69.1,34
		l-78.1,27.1c-33.2,11.5-63.2,26.6-99.1,26.1c-5.2,1.6-8.9,4.2-13,8.5c-2.3,2.4-4.4,5-6.3,7.6l34.8,3.8c-4.3,19.4-23.1,31-39.5,44.5
		c-27.9,22.8-59.6,32.2-102.3,37.1c-30.7,3.5-57.2,8.4-87.4,1.4c-2.1,2-4.3,4.1-6.5,6c20.4,5.1,33.5,10.9,74.6,7.7
		c11.9-0.9,28.5,1.3,35,6.2c-12.9,16.8-37.4,23.9-61.9,25.3l-69.2,4.1c12.1,11,31.4,6.9,48.2,7.9c54.6,3.4,96.1-9.5,130.4-36.3
		c25.9-20.2,57.2-37.8,79.4-60.5c15.4-15.7,35.8-51.4,49.2-46.8c3.3,1.1,7.8,6.4,8.1,9.1l2.3,18.9c44.4-23.5,0.4-58.8,66.7-67.3
		c38.3-4.9,58.4-20.2,88.1-32.7l96.6-40.7c12.8,5.6,22.5,18.9,21.6,30.5c-2.2,28.1-78.4,42.3-100.3,71.8l87.8-31.8l-36.1,71.7
		c-87.8,3.4-124.9,41.6-175.9,51.2c-28.1,5.3-58.3,5.4-82.2,16.1c-35.1,15.8-66,31.2-96.3,51.1c32.2-4.4,118.1-56.6,138.8-36.9
		c-12.8,20.1-70,34.5-76.2,53.7l78.8-28.8c23.1-8.4,40-24.2,61.1-35c22.6-11.5,113.8-54.5,140-48.3c-22.5,52.4-66.1,49.9-94.4,84.3
		c88.5-40.4,96.9-34.3,143.8-93.6l160.1-62.2c-23,28.2-32.7,63.7-64.2,85.2c-44.4,30.4-97.9,54.8-147.2,81.1
		c-31.4,16.7-65.5,23.8-103.3,17.2c-33.2-5.9-61.3,3-91.7,10.8c-62.8,16-120.7,10.2-170.6,14.5c-1.7,0.1,8.5,5.6,10.3,5.5
		c45.5-0.2,116.7-3.4,166.3-7.9c20.9-1.9,35.3-11.8,53.5,3.1c-69,15.7-132.9,28.7-201.6,41.1c22.9,20.7,39.9-1.5,89-2.2
		c-10.5,14.9-16,17.5-29.6,30.1c55.1-5.6,41.3-26.9,132.8-45.4c49.2-10,94.4-22.6,142-39.1c14.1,69.4-77.3,63.2-132.2,130.5
		c28.3,7.5,22-22.5,83.9-45.8c6.8-2.5,25.1-2.8,30.8,0.2c25.7,13.5-5.8,47.8,34.1,69.1c-6.5-12.9-15-24.9-8.1-36.4
		c12.9-21.1,13.9-40.8,20.2-62.8c6.3-22,11.8-46.1,6.8-67.9l142.9-83.9c66.2-38.8,124.3-233.5,199.1-271.2
		c8.6,72.8-56.1,108.3-69.7,141.7c-27.1,66.7,0.3,95.8-46.9,127.4l-101,67.6c-16.7,11.2-30.2,22.5-48.4,33.1
		c-29.9,17.5,14.2,13.8,1.2,32.5c-2.6,3.7-13,2.8-20.1,2.1c-33,11.7-37,37.2-28,59.8c5.5,13.7-9.6,33.2,1.6,46.5l5.5-31.5
		c4.3-24.6-16.4-64.1,34.4-63l22.6-25.6c16.6-18.8,38.3-30.8,68.4-46.8l12.7,33c6.2-8.8,10-19.5,14.2-31.1
		c9.1-25.3,38.1-45.9,65.6-63.8c5.3,35.1,12.1,65.2,24.9,99c4.7,12.2-6.3,28.4-19.3,38.5c-28.8,22.2-57,43.6-88.2,64.2
		c-15.4,10.2-34.4,17.2-41.1,31.5l-21.3,45.4c38-9,18-42.8,61.8-65.8l108.4-56.9c6.4-9.9,9-18,22.4-29.1l5.3,70.6
		c19.9-14.6,0.7-37.1,12.9-51.4c19.4-22.7,6-35.1-5.3-55.7c-28.1-50.9-23.3-108-21.6-162.1l61.3,33.3c11.2,6.1,15.9,15.8,14,26.2
		c-2.4,13-2,25.1-3.3,38.1c-1.4,13.7-16.8,29.1-14.5,44.2l30.3-40.3c6.6-8.7,2.6-20.5,22.1-26.9c16.7,20.5,22.8,45.3,10,67.5
		c-11.6,20.2-13.9,38.4-16.3,60.6c-1.6,13.9-27.3,27.6-34.9,40.2c-12.2,20.4-26.3,34.1-56.2,48.6c63.7-8.4,51.2-44.3,102.7-65
		c12.4,4,23.3,14.2,23.9,22.1c2.9,39.7-98,37.8-43.8,128.2c8.3-37-23.3-58.1,31.9-89.7c59.7-34.2,33.9-61.2,11.8-101.6
		c-4.7-8.6,3.1-23.4,9.4-32.4c21.2-29.9,11.7-34.4,14-59.9c0.4-4.3,31.2-6.7,37.9,52.8C9,699.5,16.5,654.5,37.8,712
		c12.1-16.6-6.2-28.1-15.2-43.2c-10.4-17.4-6.8-39.8-12.2-58.6L0.3,574.9l-51.7-35.7c23-7.9,49.9-7.1,72-0.2l13.7,25
		c3.9-10.9,4.6-21.9,3-32.8c-69.9-24.4-104.6,6.4-152.4-23.6c-23.5-14.8-60.1-28.1-72.6-48.9c-13.1-21.7,31.8-75.1,56.6-87.7
		l-2.6,36.8c5,16.8,27.5,31.3,42.9,45.1c19,17.1,32.6,34.4,56.1,50.2c-17.1-31.1-46.2-53.2-73.1-78.6c-28.1-26.5,20.6-43.7,1.6-73.8
		c-16.3-26-2.1-86.3,41.2-98.6l45.7,11.6c32.6,50.6-8.7,56.7,0.2,122c12,87.5,68.7,55.7,31.9,102.9c78.8-39-38.3-46.1,0.9-134.4
		c42-12.4,55.6,49,90.2,60c-24.8-54.9-22.7-43.6-58.7-77.6C7,300.6,53,288.6,30.2,244.4l17.2-17.2c35.3,18.3,54.3,41.2,77.2,65
		c50.6,52.7-18,48.1,18.8,93.6c22.8,28.2-27.8,44.2-19,73.1l36.7-45.3c15.6-19.3-11-37.5,5.1-48.5c24,20.9,68.2,63.8,56.3,85.8
		c-10.2,18.9-40.9,33.4-62.7,46.2c-28.1,16.5-51,31.8-77.4,49.6c-12.1,8.2-35.7,18.7-44.6,27.5L19,650.8
		c29.4-12.9,15.6-58.5,47.5-70.2c20.3-7.4-6.2,27.6,26.9,65.5c19.6,22.6,11.5,47.6-18,63.8c-40.7,22.3-58,54.8-42.3,88.6
		c14.3,30.9-8.3,41.9,1.2,69.7l8.4-28.1c17-56.6-11.7-52.8,9.2-85.7c30.6,2.2,52.9,23.6,44.7,42.5c-8.6,20-3.3,38.3,19.6,52.1
		c-15-22.4-17.4-36.4-2.8-54.8c23.1-29.1-41.7-65.4-2.8-76.7c16.5-4.8,32,0.2,38.1,12.4c14.1,27.7-8.6,71,58.2,125.6
		c-3-15.9-14.2-28.5-22.9-42.7c-31.5-51.2,12.2-63.1-31.9-103.1c-31.3-28.3-4.9-32.8-30.9-74.4c-14.9-23.9-14.9-51.2,6.4-73.8
		c18,6.1,13.9,16.7,20.2,24.3l28.8,34.6c6.5-12.4-9.9-23.8-11.3-34.5l-5.8-45.1c-1.3-10.2,8.7-19.6,20.5-26.4l53.1-30.7
		c5.9,55.1,7.7,109.7-14.5,162.3c-6,14.4-24.1,25.3-12.6,41.7c6.1,8.7,12.5,23.2,11.8,32.4c-2,23.7,16.1,35.7,31.8,54.2
		c17.6,20.9,25.6,46.6,40.4,67.6c-6.8-26.2-16.7-49.4-30.4-71.5c-7-11.4-28-21.9-28.1-34.9l-0.7-53.1c15.5,10.6,16.5,17.6,24.3,26.7
		c34.2,24.1,87.4,37.4,116.1,63.6c19.8,18.6,21.4,47,68.8,48.2c-41.5-11.4-42-30.7-57-49.3c-29-36.1-140.6-83.3-130.6-114.3
		c11.4-35.2,17.9-66.4,22.6-102.6c30,17,58.9,37.3,68,62.1c5.1,14.1,8.6,26,24.4,34.5c-6.3-13.3-8.6-24.7,2.6-38.1
		c26.4,12.5,53.5,26.4,69.5,44.1c10.2,11.3,15.7,23.4,34.4,25.2c32.6,3.2,22.2,26.9,23.2,42.3l3.5,55.1c-3.2,3.4-4.8,4.6-3.5,5
		l7.9,2.8l1.3-63.3c0.3-15.4,8.9-29.3-7.9-41.8l-30.3-22.5l-1.9,11.4l-11.5-5.8c-16.9-8.4,30.5-15.8,2.1-29.9
		c-19.5-9.7-33-20.7-50.2-31.4l-100.4-62.1C254,510,280.8,485.3,253,417.5c-15.2-37.2-84.2-71.5-75.6-143.4
		c75.6,36.3,139.9,228.2,209,265.5L532,618.2c-5,22,0.7,46.3,9.5,68.5c6.8,17.3,4.8,35.6,16.5,51.9c8.7,12.1,7.2,23.6,6.7,38.9
		c25.6-27.5,1.9-47.1,20.7-62c4.1-3.2,20.9-5.4,27.2-3.8c65.1,16,62.3,53.6,92.9,44.2l-35.2-29.2c-36-29.9-117.2-37.9-102.1-96.5
		c49.3,15,94.9,26,144.1,34.2c91.2,15.1,84.6,40.5,132.4,39.8c-13.6-11.2-20.7-16.3-30.2-27.5c43.1-3.8,70.3,20.4,87.5-2.1
		l-198.9-33.2c1.4-16.3,53.2-4.1,105.1-3.5l93.6,1.1c9.2,0.1,21.4-3.2,25.5-7.1c-58-1.1-113.5,4-167.3-8.4
		c-32.9-7.6-63-14.6-99.2-6.8c-30.7,6.7-62.3,1.8-89.5-11.2c-53-25.1-108.7-48.7-156.3-78.5c-33.8-21.1-45.3-55.6-67.9-85.5
		c47.7,25.4,114.8,34.9,160.4,60.2c54.5,54.1,56.9,51.9,148.6,85.4c-34.2-32.4-74.4-29.9-97.1-79.7c26-7.2,127.8,36.2,144.5,45.6
		c26.7,14.9,49.6,28.8,81.1,38.6l63.6,19.7c-16-21.4-72.8-34.1-82.7-52.9c10.7-7.9,29.7-4.1,41.5,0l88.7,30.1
		c-15.6-15.3-37-21.5-56.6-31.7c-75.7-39.5-82.9-6.7-174.2-46.2c-36.8-15.9-76.8-24.8-119.7-26.6l-38.1-69.8l91.7,30.1
		c-23.2-28.8-97.7-41.1-104.3-66.6c-3.1-12.1,4-27.3,19.4-33.6c32.7,12.3,67,23,96.1,35.9c29.8,13.2,52.6,27.1,92.2,30.4
		c64.7,5.5,22.8,43.2,68.7,65l-0.1-18.6c-0.1-3.1,6.1-10.1,10.6-9.9c21,1,29.7,37.9,87.9,75.1l62.3,39.9
		c28.9,18.5,67.7,22.5,108,19.7c4.9-0.4,9.9-0.3,14.8-0.2c-5.3-3.4-10.3-7.1-15.2-10.9l-10.5-0.1c-29.4-0.3-57.4-6.1-70.1-25.2
		c11.3-3.4,22.9-4.8,35.7-5.4c-7.2-2.9-14.7-5.5-23.1-7.4c-14.5-3.2-27.2-7.3-38.7-13.2c-22.7-4.9-42.2-12.8-60.1-26.7
		c-17.1-13.3-38.2-24.4-42.7-44.3l3.3-0.5c-0.8-0.6-1.5-1.3-2.2-1.9c-22.1-9.4-43.5-19.6-61.2-32.2c-8.4-3-16.8-6.1-25.5-8.7
		l-73.7-22.3c-27.5-8.3-46.8-22.3-73-32.6c-53.7-21-97.2-50-134.4-83.2l1.3,0c-19.1-9.8-37-20.5-50.6-33.2
		c-42.9-11.2-41.5-28.9-108.9-52.2c-90.9-31.3-94.8-6.9-165-33.4c1.2,0.2,2.4,0.3,3.7,0.5c-4.7-2.3-8.3-5.4-9.9-9.7
		c-1.6-4.2-0.9-8.8,1.6-12.8c-1.1-2-2-4.1-2.6-6.3c-0.5-1.1-0.9-2.1-1.1-3.1c-0.7,0-1.3,0-2.1,0c-20.6-37.5-22-23.2,0.5-60.8
		L86,30.1L-110.8,0c3.5,22.2-40.7,91.8-48.6,101.9l-19.2,10.7 M-97.6,189.6c-11.7,14.2-24.2,26.8-42.2,36.8
		c-30.2,16.7-42.8,37.5-63.3,58.2c-19.9,20.1-57.7,33.3-81.4,51.8c-52.4,40.9-93.9,21.2-121.4,49.2l86.2-18.3l60.6-21.2
		c2.7,22.3-11.7,54.5-41.5,71.4c-49.5,28-100.6,50.6-163,70.9c4-16.1,14.7-29.1,27.5-42.9l4.4-30.4c11.9-10.3,12.1-16.9,7.2-28.1
		c-7.6-17.1-12.4-31.1-33.8-45.1c33.9-28.8,74.6-53.2,123.4-70.3c20.2,17-29.8,35.2-24,59.2c38-39.2,37.9-24.2,72.1-66.6
		c34.9-43.2,91.7-51,158.4-67.2 M499.5,471.8c-62.5-17.7-116.5-39.4-168.5-66.7c-28.4-14.9-44.1-46.5-42.2-68.7l59.6,18.5l89.9,16.4
		c-27.2-26.4-62.4-7.3-115.4-39.7c-27.3-16.7-53.6-31-83.1-46.8c-13.3-7.1-20.3-20.4-29.9-30.7c-31.8-33.9-71.7-38.4-91.3-75.3
		c58.7,25.8,86.3,16.2,150.8,41.9c32.1,12.8,44.1,36.4,66.4,54.4c19.4,15.7,36.8,29,54.2,45c1.9-28.1-50.1-45.1-25.8-61
		c26.3,7,119.1,51.6,120.6,67.9c-18.9,11.4-45.1,62.9-21.5,72.3C471.4,454.9,480,422.8,499.5,471.8L499.5,471.8z"/>
</g>
<g id="Layer_3">
	<polygon class="st0" points="89.7,39.9 -86.5,42.2 -79.8,-1444.5 51.1,-1445.7 	"/>
</g>
<g id="Layer_1">
	<g>
		<path class="st0" d="M-524.6-2670.4C-524.6-2670.4-524.6-2670.4-524.6-2670.4C-524.6-2670.4-524.6-2670.3-524.6-2670.4
			L-524.6-2670.4z"/>
		<path class="st0" d="M1150.3-2365.9l14.2-4.6l-19.4-7.6l4.6-7.7c0.8-1.3-1.8-3.7-3.1-5.6l4.6-6.2l-48.8,1l-26.9-12.4l3.3-7.5
			c-7.8-3.9-14.7-12.3-13.3-18.6c23.9-1.2,41.5-2.6,68.5-6.6c-10.1-5.7-18.5-7.5-28.1-9.6c0.6-6.1,1.8-21.6-5.2-24.6l-18.3-3.9
			c-17.9-3.8,31.1-37.2-15.5-52.4l-25.6,3.6c14.3-12.2,23.1-23.3,13.2-38.3l-17.2,22.8c-43.4,3-15.2,27.2-58,16.6l22-10.5
			c4.5-2.1,1.5-14.6-3.3-12.6l-16.2,7.3c-2.6,1.2-9-4.1-11.3-5.9l-26.4-20.4c-4.4,3.9-25.4,17.5-33.1,13.4
			c-12.9-7.1-16.7-8.5-30.7-3.6c-10.8,3.8-7.5,14.9-3.4,19.5c1,1.2,1.6,5.5,2,6.8c0.3,1.3-6.4-3.5-7.5-5.1l-25.7-34.9l-17.4,8.2
			c-3.3,1.5-12.7-3.5-15.9-5.1l-10.8-5.6c-2.2-1.2-7.3,3.9-12,7.2c-3.7-7-5.5-16.9,1-25c6.7,7.1,22.9,17.7,30.3,13.4
			c16.9-9.8,23.2-24.3,21.9-35.8l-20.3-0.8c7.1-14.3,48.3-16.1,44.9-23.7l-5.8-13l-28.1,17.2c-1.1,0.7-11.6-0.5-10.5-1.2l7.8-5
			c-2.4-4.4-9.2-12.1-15.3-17.8l-7.1-6.7c-1.2-1.1,7.7-7,5.7-7.4c-8.4-1.8-27.6-3.3-37.1-3.5l-9.5-6.4c-9.1-6.2-18.4,14-24.6,10.2
			c-15.6-1.9-18.4-2.4-5.8-2.2c10.1-14.2,16-27-11.6-35l-10.5,29.1l-8.7-4.9c-2.2,2.3-8,9.8-8.7,12.7c25.7,21.9-17,55.6-16.5,42.5
			c0-1.2,0.4-2.5,1.1-5.1l1.9-6.9c0.3-1.1-3.7-1.3-4.5-0.3l-4.7,5.6c-2.1-4.5-3.5-7.5-1.4-9l11.7-8.3c-29.2-1.6-44,8.2-71.7,17.9
			l27.2-22.9c-8.8-5.3-23.4-6.6-31.9-4.4c-6.6,1.7-3.9,15.6-6.6,19.8l-18.5,28.3l-27.9-7.8l29.4-19l-20.2,1.4
			c-0.4-0.4-0.8-0.8-1.3-1.2c-12-18.3,14.2-12.8,11.5-30.3c-12.3,0.3-24.8,0-31.4-0.8c8.8-8.8,13.7-12.3,14.1-16
			c0.2-1.4-8.8-5-7.4-6l9.8-7.6c0,0-6.5-3.1-6.4-3.1l-18.4,0.9c-2.6,0.1-4.3,5.4-5.9,7.5c-1.4,1.7-9.3,0.9-12.3,0.9
			c-3.1,0-3-2.5-2.9-8.7c-21.5,4.4-47.8,2.4-72.7-0.7l34.8-21.6l-57.8,10.3l8.6-19l-12.9,7.9c-1.8,1.1-5.4-1.7-5.1-3.2
			c0.2-1,1.5-6.2,0.1-6.7c-28.8-10.7-36.5,35.6-51.8,26.3l-8.2-21.9c1.8,0.2,6.6,0.9,12.4,1.8l0.9-17.9c-5.7,0.7-27,1.4-26.8-2.8
			l0.8-18.7c-18.4,1.4-39.8-0.5-57.3-8.3l-16.2,3.4c-4.5-1.3-7-2.5-8.7-1.8l-11.4,4.2l9-12.4c1.2-1.7,4-8.5,1.3-8l-9.4,1.8
			l-14.9-19.8l-36.4,1.8l-16.9,13.4l-16.8-17.4c-9.2,9.9-7.6,14.9-3.4,25.7l-17.9-2.2c-4.9-0.6-16.5-6.1-19.9-3.8l-14.9,10.2
			c-8.7-5.1-22.1-7.2-31.8-4.6l1.6-16.3c0.3-2.7-15.3-3.7-16.6-2.8c-1.3,13-8.9,22.1-26.4,27.4c-11.5,3.4-27.7-3.3-39.2-12
			l-11.4,3.8c-3,1-9.2-2-15.3-3.9l-11.5,8c-2.2,1.5-4.6,2.8-5.9,1.8l-5.1-4.3l-15.3,21.5c-4.6-2.9-9.6-7.4-10.5-5.9l-7,11.8l-13-8.7
			c-3.4-2.2-1.6-9.1-0.8-13.4l-27.2,8.8L-97-2799l-3.8-11.6c-0.7-1.9-8,4-11.8,6.5l-9.8-16c-5.7-0.1-13.7,0.9-15.5-0.8l-8.4-7.7
			c-10.1,8.1-20.5,18.1-35,15.6c-8.7-1.5-21.5-6.1-29.2-9.3c10.8,0.6,23.9,1.2,27.4-1.8c2.9-2.5,4.9-9.2,5.1-12.1
			c-8.2,2.5-15.4,7.1-18.4,5.2l-15-9.4l-14.7,25.7l-19.6,5.9l-11.3-12.3l-32.2,4.2l16.5,22.9c1.5,1.6,10.8,7.1,8.1,6.4
			c-2.1-0.6-9.5,3.2-10,4.5c-1,2.9-0.3,8.9-3.7,9.6l-17.4,3.6l34.3,2.7l-19.1,6.6l-12,4.2c6.1-2.1-47.8-3-41-15.9l33.8-6.7
			c-13.2-1.1-29.5-1.4-45-1.3c-27.4,0.2-38.4-30.6-46.5-21.7l-4.1,4.4l-18.7-19.5l-16.5,14.1c-3.2-4.4-5.5-11.4-9.5-11.3l-18,0.1
			l-13.2,0.3c-2.7,0.1-4.6,5.4-6,7.8l-33.8-0.5l-4,21.7c-0.9,5-8.8,10.2-18.6,12.4l5.8-21.7l-23.9-19c-2.4-1.9-3.2-3.3-5.4-3.1
			l-8.8,0.7l2.1-16.4l-46.6,14.9c-42.4-26.1-10.4,15.3-41.9,22.5l-46.9-9l-9.5,20c-1.7,3.7-14.5,5-25.2,5l0.9,11.1l-37.8-4.2
			c13,6.7,22.1,10.6,35.5,16.2l-14.9,4.1c-1.9,0.5,19.3,16-9.3,32.5l-43.4-32l-30,25.2l19.2,1.3c1.4,0.9,5.5,6,2.9,7.4l-12.6,6.9
			c5.3,6.2,9.6,11.1,9.3,16.1c-27.1-12.2-38.3-26.3-70.5-21.2c64,21.8,22.6,24.1,52.2,35.3c5.6,2.1,14.9,5.2,12.3,6.4l-14.7,6.5
			l-19.6-26.1c-7.5,0.6-21.9,4.5-25.6,7.7c-3.5,3,5.7,8.6,13,12.9l-16.5,3.8c10.8,5.2,19.4,11,11.3,16.3
			c-5.6-0.7-14.2-5.5-24.5-11.2l-22,16.5l56.6,5.2c-9.9,7.3-12.9,11.8-13.6,18.2l-16.1,10c25.6,2.8,45.9,6.1,62.4,14.1
			c-28.2,5.3-41.3,8.5-68,8.5c14.7,7.5,33.4,11.8,57.3,12c-5.7,3.9-14.9,10.1-19.7,12.7c-4.1,2.3-18.5-5-19-5.2
			c1.1,12.5-48.3,21.3-59.3,23.2c-10.5,1.8-24.9,16-23.3,21.1c8.3,6.2,21.2,16.7,13.8,18.5l-13.4,3.3c-1.5,0.4,0,0.9,1.4,1.9
			l6.3,4.7l-51.4-10.4l23.1,20.3l-23.7,7.5c-4.6,1.5-17.2-5-22-6.3l-24.5,8.5l26.3,12.2c4.5,2.2,8.1,14.5,2.7,15.6l-19.6,3.8
			l-11.5,26.2l-5-13.9c-1-2.8-11.9-4.5-16.7-6.3l-3-23.7l-36.5,20.3l21.2,17.9l21.9-2.5l-21.9,15.6l-25.8-15
			c4.2-4.5,7.5-8.4,4.1-6.6c-12.6-2.5-15.8-3.5-15.8-1.5l-0.3,7.8l-0.4,26c-9.5,4.3-11.2,4.9-8.7,5.1c1.7,0.1,8.6,2.3,9.5,3.2
			l17.6,17.3c-1.2,1.7-11.8,9.4-8.2,10.4l16.9,4.5c-1.6,3.8-1,12.6,2.3,14.1c21.7-5.9,41.1-4.9,57.3,3.1l29.6,14.6l27.1-18.1
			c1.3-0.8,3.9-6.7,4.9-5.8c14.7,13.1,24.8-2.1,29.5,10.3c2.4,6.3-3.3,13.2-14.7,16.3l1.7,21.9l-6.4,5.9c-1.3,1.2,11.7,3,11.5,4.4
			l-3.3,33c-16.1-9-23.9-23-30.2-35c-22.3-0.1-31-13.1-41.7-23.2l-17.6-16.6c-13,5.6-19.6,8.1-29.8,10.8l-24.2,6.3l-37.5,15.4
			l7.4-12.9c1-1.7-11-2.9-14.4-3.5c-10.6-1.4-15.4-0.8-6.4,3.9l7.6,30.7l17.3-14.4c0,0,5.9,6.6,8.6,5.2l13.3-7.2
			c3.9-2.1,11-6.7,13.1-4.8c1.6,1.4,6,6.6,8.7,7l32.1,4.8c7-0.9,9.3-0.7,5.2,2.5c-2.9,5.3-3.4,17.2,2.4,18.5
			c4.7,1,11.3-2.8,18.1-4.3c4.6-0.9-2.7-7.3-5.9-14.6l23.3,14.1c3.9-5.1,7-10.9,9.8-9.9c2.7,1.1,9,4.1,7.1,5.7l-7,5.9l13.8,14.1
			c-10,3-20.9,5.6-19.3,8.3l6.9,11.7l-23.9,0.8l7.4,18.4l-37.2-1.5l11.3-18l-17.4-15.3c-5.6,4.6-11.6,11-15.8,9.8l-22.4-6.2
			c9.3,11.9,18.4,21.6,28,30.4l-24,13.3l9.5,3.8c1.7,0.7-3.3,3.2-3.6,3l-26.8,3.9l6.9-5.6c1.5-1.2-0.1-5.8-2.5-5.3l-13.8,2.8
			c-9.2,1.9-12.9,10-10.8,16.7c2.4,7.7,14.2,7.6,24.1,3.2l12.6-5.6c18.4-8.2-8.8,19.4,0,23.1l23.8,9.9l-20.4,9.6l21.6,10.4
			l-22.8,13.3c-7.7-4.5-13.7-7.6-20.3-9.9c-4.6-1.7-8.6,3.7-12.3,8.6c-2.6,3.5,2.1,7.4,9.7,12.7l-13.4,3.5c1.9,1.2,11.3,7.5,8.2,9.5
			l-10.7,7l13,13.3l36.7-12.6c5.9,12.9,4.9,21.7-2.3,29.9c1.5,1.8,9,6.9,6.3,7.7c-46.3,12.3-22.5-9.2-56.9,13.8l-36.5,3.9l-2.7-17
			c-0.3-2.1-17.2-1.2-16.2,0.8l4.7,9c2.2,4.4,9.6,13,18.3,14.6l-0.4-0.2c5.9,1.1,12.8-0.4,27.2-1.4l-13.4,8.1
			c-1.6,1,0.7,3.3,2.6,5.2c7.5-0.3,17.9-2.4,20.5,0.1l10.9,10.2l9.7-4.1c2.6,3.4,16.2,14.2,23.1,13c11.7-2,26.6-13,33.7-19.3
			l19.7,9.6l-3.2-10.1c-0.3-1.1,5.5-1.4,7.1-1l12,3l-3-14.2c25.1,0.6,48.6,7.5,60.8,19.5l49.2-12.3c10.1-2.5,26.2-11.1,40.1-7.1
			c8.6,2.5,15.3,6.7,29.5,16.1c-11.4,5.7-63.8,13.8-65.2,12.8c-1.8-1.2-7.8-5.2-5.5-5.8l17.7-4.5l-50.1-2.2
			c8.8,12.3,12.4,17.8,12.4,29l4.3,5.2c1.6-0.4,2.9-0.7,3.9-0.9l-8.7,17.5l-10.1-18.8c-4.8,2.2-12.3,7-13.6,5.2l-9.8-12.7
			l-14.8,14.2l-44.9-6.4l-2.8,20.6c-0.6,4.7,20.3,7.4,28.1,4.9l14.6,10.1c14.1-1.4,32.9-9.2,43.5-15.8l16.7,4.1l25.2-5.4l-17.2,18.1
			c34.1-7.2,44.1,1.5,61.6,13.2c14.9,9.9,23.9,23.3,11.5,40.9l18.9,7.7c-39.2,4.6-28.3-5.5-49.2,6.4c-2.1,1.2,5.4,3.1,8.2,3.5
			l13.2,1.8l-19.1,12.7l41.4,9.2l-23.2,6.5c10.5,2.6,21.2,2.3,21.5,5.3l1.7,16.1l13.4,0.7l1.8,11.1c8.7-0.6,31-3.7,39,0.1l28,13.4
			l-23.8,7.9l23.5,20.6c2.6,2.2,7.8,10.3,4.3,11.7l-15.5,5.9l20.6-0.6c3.5-0.1,2.4,9.3,4.5,10.8c11.8-0.1,33.3-0.7,46.1-1.3
			l23.3-1.2c8.6-0.4,25.1-3.7,33.8-5.2l5.2-8.4c0.5-0.9,4,3.2,4.9,4l4.7,5c8.2-3.2,16.5-5.8,25.8-7.8l15.6-3.4
			c11.2-2.4-8.8,0.5-15-19.8c-0.8-2.7,13.8-3.5,16.7-1.5l10.2,6.6l9.4-9.9c3.5,3.3,8.4,9.1,4.8,9.8l-17.8,3.3l9.7,19.5l25.6-13.7
			c3.3,8.5,5.3,13.2,6.3,17.3c0.9,3.9-10,11.6-13.8,13.4c7.8,4.6,13.4,9.7,3.2,6.1l-12.8,2.5c-1.3,0.2,0.2,1.9,1.1,2.5l4.8,3
			l-18.5,4.3c-3.7,0.8-0.3,7.8,1.9,9.9c2.2,2.1,10,5.7,12.4,3.7c4.6-3.9,8.9-9.6,11.9-8.4l18.6,7.8l-2.8-18.5l54.6,15.7
			c-0.3,6,1.4,16.6,5.8,18.9c23.2-13.6,47.6-18.1,71.2-8.2c6.6-3,14.3-8.7,19.8-6.8l25.6,8.7c12-10.2,33.9-14.8,53.9-12.5
			c-9-6.4-11.8-11.8-8.8-20l26,11.1c-15.3-31.2,57-38,21.9-53.3c-5.1-2.2-18.3-2.8-20.7,0.7c-2.6,3.9-7.7,12.1-12.3,13.3
			c-7.2,1.9-22.3-7.6-21.2-12.2c1.3-5.5,12.2-10.2,23.5-13.3l26.8-28.6c2.8-0.2,14.5,0.6,13.7-1.4l-3.5-8.5l25.7-8l17.4,16.4
			c1.3,1.2,0.4,6.6-1.9,6.4l-11.3-1.3l-10-1.2c-2-0.2-5.1,3.9-3.4,4.5l8.5,3c-7.1,4.4-10.8,9.1-14.7,16.2l-8.4,15.3l37.2-6.3
			c3.9-0.7,15.1-4.3,14.5-6.6l-2.1-8.7c32.6,9.5,50.7,20.6,65.8,41c13.8,18.5,45.2,36.1,47.6,58c5.4,48.3,13.7,99.9,10.3,147.9
			l-7.2,151.5l134.8-51.4c-15.3-59.3,5.1-152.8,2.7-213.2c25.2-28.2,51.1-56.8,81.1-81.3c23.1-18.9,45.1-35.9,57.8-58.4
			c8.1-14.4,23.5-21.9,51.5-15.3l-30,15.6l4,22c0.4,2.1,4.7,6.9,6.6,8.5c1.9,1.7,10-3.8,12.5-5.8l23.7-18.8c3.5-2.8,16.2,9,17.7,12
			c5.2-0.7,13.6-3.4,18-2.1l19.9,5.9c-3.9-6.8-9-11.9-16.1-18.5c12.8-0.3,20.2,9.8,24.2,20.2l27.4-19.1c2.7,2,6.6,7.6,8.7,6.3
			c2.1-1.3,9.3-6.2,11.8-7l35-12.5c-6.9,13.1-13.6,20.7-25.9,33.4c46.1,22.2,8.4-2.9,61.4,21.4l-42.9,18.9
			c25-3.1,40.2,1.7,52.6,13.7c20.2-17.8,73.7-6.1,80.9-24c1.5-3.7,2.5-10,0.5-12.3c2.4,2.8-32.4-22.8-50.1-20.5
			c22.7-5.3,22.1-22.7,27.6-16.1l5.6,6.8l54.3-8.4l12-1.9c2.6-0.4-0.4-5.1-1.7-8.5c-0.9-1.7-1.8-3.1-0.7-2.5
			c1.4,0.7,6.5,3.1,7.7,3.8l24.5,14.2l33.6,19.3c4.6,0.9,14.5,0.7,17.3,2.9l12.8,9.9l3.3-14.2l6.5,5.6c1.1-3.4,2-6.9,2.2-10.4
			c0.2-2.7,1.1-5.1,2.6-7.2l-13.2-7.9l0.2-0.1l13,7.8c5.3-7.6,17.8-11,31.9-9.8h0.1c1.4,0.1,2.7,0.3,4,0.5
			c9.9-4.3,25.2-4.7,35.7-0.4c0.6-0.7,1.2-1.3,1.8-2c0.3-0.7,0.4-1.4,0.5-2.2c0,0.9-0.1,1.7-0.5,2.5c5.3-5.6,12.4-10.1,20.8-12.7
			c-0.9-3.4-1.6-6.8-1.9-10.3c-0.5-6.1,5.9-12.4,14.7-15.6c-2.8-7.5,0.1-16.1,11.9-20c21-6.9,43.4-9.5,65.9-12.3
			c4.6-9.6,14.2-16.6,31.5-20.2c11.9-2.5,21.2-4.7,29.2-7.8c-7.9-2.7-14.3-9.7-14.8-16.4c0.6,6.6,7,13.5,14.8,16.2l-0.1,0
			c1.3-0.5,2.5-1,3.7-1.5c-1.3-3.9-0.5-8.1,3.2-11.8c2-2,4.1-4,6.3-6l0.2,0c1-0.9,2-1.8,3-2.7c-12.6-7.3-22.4-10.8-34.3-15.3
			l11.1-6.9l-26.2-2.7c15.4,0.2,20.5-4.4,21.6-11.1c0.5-3.3-2.5-9.2-5.8-14.2c-1.9-2.9,1-11.5,6.4-13.3l11.8-3.9
			c10.1,4.8,23.7,9.8,29,7.1l19.9-10.4c2.2-1.1,14.6-0.2,13.2-1.9l-8.4-9.8l28.5-20.1c-5.9-12.6,1-24.3,19.4-29.9l2-5.9
			c2.5-7.3,21.6,10.3,29.8-7.5l-44.5-21.2l33.3,2.6l-11.6-14.7l9.3-0.6c9.3-0.6-8.3-13.9,1.1-21.4c3.7-3,13.4-8.1,16.5-11.3
			l13.9-14.5c2.6-2.7-1.7-11.6,2-13.8l21-12.2l-44.2-6.7c-0.9,2.5-2,5.7-2.2,5.8c-1,0.8-6.4,0-8.1-6.2c-4.2-14.9,28.7-12.5,21-18.4
			l-6.9-5.3c9.9,0.7,19.9,3.1,19.2,0.9l-2.8-9.3c-0.9-3-2-11.7-2.3-15.7c-0.2-2.5,8.9-2.4,10.8-3.1c-3.5-6.6-2.9-18.4,4.8-19.2
			l29.2-3c-2.9-3.8-10-9.1-7.6-11.4l11.3-10.6c-2-6.7-21.2-18.5-31.8-17.4c-6.8,0.7-17.9,1.1-22.5,0.1c-5.1-1.2,7.1-14.2,11.9-15.4
			c0.7-0.2-7.9-1.9-10.4-2.5c-4.8-1.1-13.2-7.2-10.8-10.1c1.8-2.2,8.9-8.2,12.6-9.2l31.3-8l26.7,9.4l-8.2-11.8
			c-1.1-1.5,3.8-4,6.4-4.1l13.2-0.5l1.8-16.3C1155.3-2359.3,1147.4-2364.9,1150.3-2365.9z M-1024-2137.6c2-3.6,20.6-3.9,23.5-0.6
			c2.9,3.3,8.4,13.1,6.1,14.3c-9.7-0.5-20.7-1.3-25.8-2.1C-1024.8-2126.8-1025.9-2134.2-1024-2137.6z M-986.8-2044.5
			c-0.5,1.3-4.5,1.4-7.6,2.1c-3.2,0.7,0.5-4.7,3-10.2c-0.5-0.7-9.7-1.1-11.2,0.6l-7.8,9.1l-42.2-14.9l18.3-14.7v0l50.4,20.7
			L-986.8-2044.5z M-968.3-2424.3L-968.3-2424.3l4.9-12.7c14.1,2.9,22.2,0.3,33.4-4c0.8,0.8,5.2,5.9,8,6.7l13.8,3.7L-968.3-2424.3z
			 M-898-2509.7l-10.1,5.4c-3.8-3.3-12.1-9.2-14.6-12.5l-15.3-19.9c-1.1-1.5,1.3-8.4,3.7-7.9l-0.1,0l13.6,3c3.2,0.7-3.1,4.5-6.3,8
			l18.5-1.7c2.5-0.2,0.1,5.4,0.4,6.6l25.9,17.6C-890.7-2510.5-895.5-2511.1-898-2509.7z M-749.4-2615.6l-20.1-0.5
			c-20.8-0.5,15-15.2,1.2-34.3l19.9,3.2L-749.4-2615.6z M-555.5-2763.9c-13.1,0.9-24.4,2.2-30.5,4.8c-1.7,0.7,6.7,5.3,5.2,6.3
			l-10.4,6.8c-2,7,23.3,10.5,28.5,16l27.2,28.3c4,4.3-20.9,11.5-26.3,7.7l-28.5-20.5l4.7-5.1c1.3-1.3,2.3-7.1,0-6.8l-14.1,1.9
			l-18.1-25.6c4.3-11.3,17.5-17.6,35.1-24.5L-555.5-2763.9z M-615.7-2808.5L-615.7-2808.5l28.1,13.3c3.8,1.8-7.7,12-12.2,11.2
			c-4.4-0.8-11-3.7-15.7-6.6l-13.2-8.3C-631.7-2800.7-619-2810-615.7-2808.5z M-672-2768.1L-672-2768.1l-1.3-21.1l29.9,12.7
			l-5.1,23.1l18.8,3l-2.9,26.9l-9-5c-2.2-1.2-6.6-1.6-9.8-2l2.7-9.3c0.7-2.4-7.6-4.8-11-5.1c-1.6,11.3-3.2,12.8-7.6,6.1l3.7-14.2
			c1-3.8-9.4-3.8-17.4-4.9l-8.1-8.5C-690.8-2768.2-672.6-2766.5-672-2768.1z M-674.8-2561.3l-6.2,7.4c-1.3,1.5-9.6-2.3-8.9-4
			c1.8-4.1,7.8-10,13.4-10.8c6.9-0.9,20.9,4,22.7,8l7.8,17.4C-658.7-2550-665.3-2554.4-674.8-2561.3z M-584.7-2630.4l-0.1,0
			c-16.7-6.5-34.5-7.8-62.2-8.5c0.1,2.5,1.9,9.6,6.6,10.7l25.5,5.7l-23.8,17.6c-1.8,1.3-14.2,1.3-16.9,1.4c-3.6,0.2,0.2,6,0.5,11.8
			c-21.1-5.9-20-23.8-2.8-35.5l-14.8-0.5c-3.5-0.1-9.3-8.7-8-11l22.1-39.2c6-10.8-2.7-26.8,22.1-32.4l27.4,16.8
			c2.5,1.5,18.3,1.7,17.9,3.9l-2,11c-2.3,0.5-14,1.1-19,0.8c-5.7-0.3-12.9-7.8-20.5-11.4c-8.7,8-7.1,16.6-5.8,30l27.1-3.8l2,16.3
			l15.5-6C-598.7-2650.6-567.1-2639.9-584.7-2630.4z M-522.7-2667.8c-19.8,12-45.4,23.4-66.8,9.2c57.9-14.3-2.5,1.4,53.1-20.9
			c2.8-1.1,7.3,5.8,11.8,9.1c-2.8-13.4,1.2-21.6,24.3-31.4l-18.3-2.5l12.3-2.8c2.3-0.5,9.6-2.2,7.8-3.3l-9-5.6
			c4.6-1.1,13.9-2.7,14.1-0.6C-490.6-2691.2-496.6-2683.8-522.7-2667.8z M-289.7-2699.7c-4.5-3.7-7.8-7.4-8.8-6.4l-8.4,9.2
			c-2.5,2.7-6.6,10.4-9.2,9.1l-9.9-4.9c-2.6-1.3,4-7,7.1-8.6c12.5-6.5,26.6-9.9,40.4-1.3L-289.7-2699.7z M-277.3-2734.6
			c-4.3,0.4-15.4,1.7-19,3.3l-22.1,10.3l-2.2-15.7l26-1.4l-20.7-7v0c13.6-3.4,33-4,41-0.4C-271.5-2744.4-274.1-2734.9-277.3-2734.6z
			 M120.4-1798.4c-3.2-0.4-12.2-4.9-14.1-3.3l-9.3,8.1c-25.8,22.6-54.1,47.7-42.8,75.8c0,0,0,0,0,0c-11.3-28.1,16.9-53.2,42.8-75.8
			v0l9.3-8.1C108.2-1803.3,117.2-1798.8,120.4-1798.4l18.1,2.1c1.5,0.2,2.2,1.2,2.4,2.6 M394.8-1870.2c17.3-0.4,35.6-4.7,35.9-7.1
			c0.4-3.3-2.1-11.3-3.9-14.5c-1.8-3.2-16.6-0.9-21.3-2.4c-4.2-1.3-12.6-4-17.1-4.1c4.5,0,12.9,2.7,17.2,4.1
			c4.7,1.5,19.5-0.8,21.3,2.4c1.9,3.2,4.3,11.1,3.9,14.5C430.4-1874.9,412.1-1870.5,394.8-1870.2z M461.5-1831.4l-37.9,15.1l-0.1,0
			L461.5-1831.4L461.5-1831.4L461.5-1831.4z M489.4-1817.7c-1-1.8-9.3-4-10.4-2.2l-5.2,8.5c-1.6,2.6-12.4-2.2-12.3-5.1v0
			c0,2.9,10.7,7.7,12.3,5l5.2-8.5C480.1-1821.7,488.4-1819.5,489.4-1817.7C489.4-1817.7,489.4-1817.7,489.4-1817.7L489.4-1817.7z
			 M540.7-1826C540.7-1826,540.7-1826,540.7-1826l35.6-7.4c-3.9-8.4-12.7-11.4-22-10.8c9.3-0.6,18.1,2.4,22.1,10.8L540.7-1826z
			 M710-2590l12.4,6.6c2.8,1.5-12.8,5.8-14.3,4.3l-11.3-12.3l26.8-16.1v0l26.3,3.3l-17.1-11.7l63.9,11.2
			C770.1-2588.8,748.3-2606.7,710-2590z M816.1-1894.5c-0.3,0.2,4.9-3.7,6.4-4.9c0.3-0.2,0.4-0.4,0.6-0.7c-0.1,0.3-0.3,0.6-0.6,0.8
			C821-1898.2,816.1-1894.4,816.1-1894.5L816.1-1894.5z M849.8-1886l-33.7-8.5h0L849.8-1886L849.8-1886z M831.3-1921.9
			c6.9-0.3,14.3,1,14.9-0.6l4.2-12.1c0,0,0,0,0,0l-4.2,12C845.7-1920.8,838.2-1922.2,831.3-1921.9c9.5,19.8,38,10.4,31.2,20.1
			c-1,1.5-3.1,6.6-5.4,6.4c2.2,0.1,4.3-4.9,5.3-6.4C869.2-1911.5,840.7-1902.1,831.3-1921.9z M859.1-1893.4L859.1-1893.4
			c3.7,0.3,7.3,0.5,10.9,0.8C866.4-1892.8,862.8-1893.1,859.1-1893.4z"/>
	</g>
</g>
</svg>
