<?xml version="1.0" encoding="UTF-8"?>
<svg xmlns="http://www.w3.org/2000/svg" viewBox="0 0 1157.73 406.02">
  <defs>
    <style>
      .cls-1 {
        fill: #862600;
        stroke-width: 0px;
      }
    </style>
  </defs>
  <g id="Layer_2" data-name="Layer 2">
    <path class="cls-1" d="m-194.86,159.54c-25.97,5.21-24.14,12.36-46.62,19.18-87.11,26.36-109.52,55.26-127.81,62.62-86.65,34.85-170.74,6.72-227.5,51.63-21.79,17.26-45.69,28.53-75.68,39.9l-36.46,33.64c-49.26,45.46-99.3,22.69-120.74,54.06l93.91-23.99c35.45-9.06,56.79-31.34,85.01-46.6,26.28-14.2,53.05-26.34,76.83-42.06,25.86-17.12,59.92-23.26,96.03-24.1l43.54-.96c-39.43,35.32-78.19,64.61-130.48,87.13-24.84,10.67-43.12,25.01-69.12,34.03l-78.07,27.09c-33.19,11.5-63.16,26.55-99.09,26.05-5.24,1.62-8.85,4.24-12.96,8.53-2.33,2.45-4.35,4.97-6.27,7.56l34.85,3.81c-4.31,19.37-23.09,31.03-39.53,44.48-27.88,22.77-59.61,32.24-102.25,37.13-30.75,3.53-57.24,8.45-87.39,1.39-2.08,2.04-4.27,4.05-6.5,6.03,20.42,5.12,33.47,10.88,74.65,7.68,11.9-.92,28.51,1.31,34.99,6.23-12.92,16.8-37.36,23.86-61.9,25.3l-69.23,4.14c12.06,10.98,31.44,6.9,48.23,7.93,54.55,3.37,96.13-9.5,130.39-36.29,25.86-20.25,57.24-37.81,79.45-60.52,15.36-15.71,35.79-51.42,49.19-46.79,3.32,1.14,7.8,6.37,8.1,9.08l2.29,18.85c44.38-23.54.42-58.77,66.69-67.27,38.31-4.89,58.42-20.18,88.09-32.7l96.62-40.71c12.79,5.56,22.52,18.9,21.64,30.45-2.19,28.1-78.42,42.29-100.3,71.83l87.84-31.84-36.06,71.67c-87.82,3.4-124.88,41.64-175.85,51.2-28.08,5.26-58.32,5.37-82.23,16.13-35.07,15.75-66.03,31.23-96.28,51.12,32.23-4.41,118.06-56.63,138.84-36.92-12.76,20.06-69.99,34.46-76.16,53.72l78.76-28.76c23.08-8.43,40.03-24.24,61.11-34.99,22.61-11.52,113.77-54.54,139.99-48.26-22.52,52.38-66.11,49.9-94.41,84.32,88.47-40.37,96.88-34.29,143.84-93.56l160.13-62.19c-23.04,28.2-32.74,63.72-64.16,85.19-44.42,30.37-97.87,54.75-147.21,81.06-31.39,16.74-65.53,23.83-103.27,17.17-33.23-5.88-61.3,3.01-91.67,10.75-62.78,16-120.73,10.2-170.61,14.54-1.7.14,8.51,5.57,10.31,5.54,45.51-.15,116.72-3.36,166.28-7.93,20.87-1.93,35.35-11.85,53.46,3.05-69.03,15.66-132.95,28.68-201.57,41.14,22.91,20.73,39.91-1.48,89.03-2.17-10.53,14.89-15.95,17.46-29.56,30.05,55.07-5.59,41.33-26.95,132.76-45.45,49.21-9.98,94.4-22.57,142-39.12,14.11,69.36-77.34,63.17-132.15,130.47,28.31,7.53,22-22.5,83.94-45.76,6.77-2.54,25.13-2.76,30.76.21,25.68,13.47-5.82,47.8,34.13,69.08-6.47-12.88-15.04-24.91-8.06-36.36,12.89-21.15,13.89-40.77,20.22-62.82,6.27-21.99,11.79-46.1,6.82-67.86l142.87-83.87c66.2-38.85,124.32-233.49,199.06-271.17,8.6,72.8-56.06,108.26-69.67,141.7-27.07,66.68.28,95.84-46.85,127.38l-101.05,67.63c-16.73,11.22-30.21,22.51-48.39,33.13-29.88,17.47,14.23,13.77,1.24,32.47-2.57,3.69-13.01,2.85-20.14,2.09-33.03,11.7-36.97,37.15-28.01,59.79,5.45,13.72-9.64,33.2,1.58,46.48l5.49-31.5c4.27-24.6-16.39-64.08,34.35-63.03l22.62-25.57c16.6-18.76,38.32-30.78,68.44-46.75l12.65,33.02c6.19-8.75,9.98-19.53,14.16-31.1,9.11-25.27,38.11-45.85,65.61-63.78,5.26,35.15,12.07,65.18,24.95,98.98,4.65,12.16-6.26,28.45-19.3,38.51-28.77,22.21-57.04,43.59-88.16,64.17-15.36,10.17-34.43,17.24-41.1,31.51l-21.3,45.35c38.03-8.97,17.99-42.81,61.81-65.83l108.41-56.9c6.38-9.94,8.97-18.02,22.35-29.14l5.31,70.61c19.87-14.6.75-37.1,12.93-51.36,19.42-22.73,6.05-35.09-5.3-55.68-28.13-50.91-23.3-108.02-21.56-162.11l61.27,33.29c11.2,6.1,15.91,15.82,13.98,26.16-2.41,12.97-1.99,25.14-3.31,38.06-1.36,13.7-16.78,29.11-14.5,44.21l30.31-40.33c6.56-8.69,2.64-20.46,22.13-26.93,16.72,20.5,22.77,45.27,10,67.53-11.57,20.18-13.88,38.42-16.33,60.65-1.56,13.94-27.33,27.59-34.85,40.17-12.24,20.43-26.34,34.14-56.23,48.58,63.69-8.39,51.24-44.34,102.75-65,12.4,4.03,23.32,14.25,23.87,22.14,2.91,39.68-97.96,37.84-43.85,128.18,8.28-36.96-23.31-58.12,31.93-89.73,59.73-34.18,33.92-61.22,11.75-101.56-4.74-8.63,3.1-23.4,9.45-32.35,21.2-29.94,11.68-34.4,13.97-59.89.39-4.33,31.21-6.74,37.92,52.82,7.08,62.79,14.6,17.75,35.89,75.22,12.15-16.55-6.22-28.13-15.2-43.15-10.37-17.38-6.78-39.79-12.17-58.55L.27,574.89l-51.71-35.67c22.98-7.85,49.88-7.06,71.98-.2l13.7,25.01c3.94-10.89,4.57-21.86,3.04-32.79-69.88-24.36-104.64,6.39-152.44-23.64-23.53-14.8-60.09-28.08-72.63-48.88-13.07-21.72,31.82-75.1,56.63-87.68l-2.61,36.82c4.99,16.83,27.48,31.27,42.89,45.08,19.03,17.06,32.65,34.41,56.09,50.16-17.11-31.1-46.18-53.19-73.1-78.61-28.07-26.52,20.6-43.7,1.6-73.82-16.35-25.98-2.12-86.28,41.22-98.64l45.72,11.59c32.62,50.6-8.71,56.66.22,121.97,12,87.47,68.68,55.72,31.93,102.94,78.79-39.04-38.27-46.12.86-134.37,42-12.37,55.61,49.04,90.17,59.97-24.8-54.85-22.69-43.63-58.74-77.63-38.09-35.91,7.89-47.91-14.92-92.05l17.24-17.24c35.31,18.3,54.33,41.21,77.2,65.03,50.61,52.71-18,48.08,18.76,93.61,22.78,28.18-27.77,44.24-18.96,73.11l36.68-45.31c15.61-19.29-10.97-37.51,5.09-48.54,24,20.91,68.25,63.79,56.3,85.81-10.25,18.86-40.91,33.41-62.67,46.17-28.15,16.48-51.05,31.79-77.37,49.56-12.14,8.18-35.69,18.72-44.57,27.49l-18.89,76.67c29.4-12.86,15.65-58.48,47.54-70.16,20.31-7.43-6.18,27.56,26.89,65.5,19.64,22.59,11.51,47.6-18.03,63.8-40.69,22.28-57.98,54.77-42.32,88.65,14.32,30.92-8.3,41.93,1.21,69.66l8.44-28.11c16.97-56.61-11.71-52.84,9.24-85.73,30.64,2.19,52.89,23.57,44.71,42.53-8.63,19.99-3.25,38.3,19.64,52.12-15.04-22.36-17.35-36.37-2.76-54.76,23.08-29.08-41.7-65.42-2.83-76.67,16.53-4.78,32,.19,38.14,12.4,14.05,27.65-8.57,71.02,58.23,125.58-3.01-15.9-14.17-28.5-22.88-42.67-31.49-51.2,12.16-63.12-31.88-103.08-31.25-28.34-4.91-32.78-30.87-74.38-14.92-23.93-14.93-51.19,6.35-73.77,18.01,6.11,13.86,16.7,20.19,24.28l28.83,34.57c6.54-12.43-9.91-23.84-11.28-34.54l-5.79-45.08c-1.31-10.15,8.74-19.61,20.54-26.45l53.08-30.73c5.92,55.11,7.74,109.69-14.46,162.34-6.05,14.39-24.12,25.32-12.64,41.69,6.14,8.71,12.53,23.19,11.76,32.39-2.01,23.71,16.1,35.68,31.75,54.22,17.6,20.86,25.63,46.64,40.45,67.55-6.8-26.25-16.7-49.38-30.35-71.53-6.96-11.35-27.99-21.94-28.11-34.93l-.67-53.13c15.51,10.58,16.51,17.64,24.31,26.69,34.17,24.07,87.4,37.36,116.13,63.61,19.83,18.6,21.36,47.02,68.8,48.2-41.53-11.42-42.02-30.67-57-49.33-28.96-36.07-140.63-83.32-130.59-114.35,11.41-35.18,17.89-66.39,22.57-102.64,29.97,16.97,58.91,37.32,68.01,62.1,5.15,14.07,8.55,25.98,24.39,34.52-6.27-13.3-8.64-24.69,2.64-38.09,26.38,12.47,53.46,26.36,69.45,44.08,10.21,11.32,15.73,23.4,34.45,25.22,32.62,3.18,22.19,26.87,23.18,42.3l3.54,55.15c-3.19,3.39-4.82,4.58-3.47,5.03l7.95,2.82,1.32-63.3c.3-15.35,8.88-29.28-7.9-41.75l-30.32-22.47-1.92,11.37-11.51-5.76c-16.92-8.45,30.48-15.77,2.06-29.87-19.47-9.67-32.98-20.73-50.19-31.38l-100.42-62.08c-52.58-32.49-25.82-57.18-53.57-124.95-15.2-37.16-84.22-71.45-75.62-143.38,75.56,36.34,139.9,228.2,209.03,265.51l145.6,78.61c-4.98,21.96.7,46.26,9.5,68.53,6.8,17.26,4.8,35.57,16.49,51.87,8.67,12.09,7.22,23.65,6.71,38.9,25.58-27.52,1.92-47.08,20.75-62.01,4.07-3.23,20.91-5.36,27.18-3.81,65.09,16.05,62.34,53.63,92.88,44.21l-35.24-29.15c-36.02-29.86-117.23-37.94-102.05-96.48,49.34,14.96,94.89,26.01,144.11,34.16,91.24,15.09,84.56,40.51,132.39,39.85-13.61-11.16-20.67-16.28-30.2-27.47,43.07-3.85,70.28,20.41,87.48-2.07l-198.94-33.21c1.37-16.26,53.18-4.06,105.05-3.5l93.63,1.06c9.24.11,21.41-3.17,25.52-7.15-57.97-1.13-113.51,4.02-167.34-8.35-32.9-7.59-62.95-14.65-99.25-6.77-30.74,6.69-62.26,1.76-89.52-11.17-52.97-25.1-108.7-48.7-156.33-78.49-33.76-21.12-45.3-55.62-67.85-85.47,47.71,25.4,114.81,34.91,160.4,60.21,54.46,54.07,56.95,51.92,148.61,85.4-34.21-32.41-74.37-29.87-97.06-79.69,26.04-7.19,127.78,36.22,144.51,45.55,26.73,14.92,49.58,28.84,81.07,38.64l63.56,19.74c-15.96-21.42-72.79-34.11-82.71-52.89,10.7-7.87,29.65-4.09,41.54-.04l88.71,30.06c-15.64-15.28-36.96-21.47-56.59-31.74-75.72-39.51-82.94-6.69-174.19-46.17-36.76-15.89-76.81-24.82-119.67-26.56l-38.11-69.8,91.71,30.08c-23.21-28.75-97.73-41.06-104.26-66.57-3.1-12.09,4.01-27.32,19.44-33.58,32.67,12.26,67.02,23.02,96.09,35.89,29.8,13.19,52.64,27.08,92.23,30.44,64.65,5.48,22.79,43.19,68.73,64.98l-.07-18.58c-.05-3.13,6.12-10.14,10.56-9.91,21.02,1.03,29.71,37.89,87.9,75.15l62.31,39.92c28.91,18.51,67.73,22.5,107.98,19.69,4.9-.36,9.91-.28,14.81-.23-5.27-3.44-10.29-7.1-15.15-10.86l-10.48-.12c-29.37-.31-57.44-6.08-70.1-25.18,11.29-3.36,22.93-4.83,35.67-5.39-7.22-2.87-14.7-5.53-23.14-7.42-14.46-3.25-27.17-7.28-38.68-13.17-22.69-4.88-42.18-12.78-60.12-26.68-17.11-13.28-38.2-24.38-42.73-44.27l3.29-.47c-.78-.6-1.47-1.27-2.2-1.87-22.15-9.44-43.54-19.65-61.25-32.2-8.36-3.02-16.83-6.07-25.54-8.71l-73.67-22.29c-27.49-8.3-46.83-22.29-73.02-32.55-53.72-21.01-97.16-49.96-134.43-83.23l1.29-.02c-19.11-9.81-37-20.52-50.63-33.21-42.92-11.19-41.48-28.94-108.87-52.23-90.85-31.35-94.81-6.89-164.99-33.4,1.24.19,2.43.34,3.67.48-4.68-2.33-8.3-5.43-9.92-9.66-1.62-4.22-.93-8.76,1.63-12.78-1.07-2.03-1.98-4.08-2.59-6.32-.53-1.05-.86-2.09-1.14-3.11-.67.01-1.34.02-2.06.04-20.63-37.51-22.03-23.2.49-60.85l-43.8-26.18L-110.79,0c3.48,22.16-40.72,91.79-48.59,101.9l-19.16,10.67m80.97,77.02c-11.73,14.18-24.2,26.75-42.19,36.76-30.15,16.72-42.85,37.49-63.34,58.16-19.93,20.12-57.68,33.3-81.4,51.81-52.39,40.86-93.91,21.2-121.39,49.17l86.17-18.34,60.57-21.2c2.71,22.34-11.74,54.54-41.54,71.39-49.52,28.01-100.57,50.61-162.97,70.88,3.95-16.12,14.72-29.07,27.53-42.94l4.37-30.39c11.95-10.31,12.14-16.95,7.2-28.09-7.62-17.08-12.36-31.12-33.81-45.14,33.92-28.83,74.62-53.25,123.4-70.3,20.16,17.04-29.78,35.16-24.05,59.18,37.97-39.24,37.92-24.24,72.07-66.58,34.85-43.17,91.74-51,158.44-67.23M499.55,471.78c-62.49-17.73-116.49-39.44-168.46-66.68-28.38-14.88-44.05-46.52-42.17-68.7l59.62,18.52,89.92,16.4c-27.19-26.44-62.36-7.28-115.36-39.74-27.33-16.74-53.64-31.04-83.12-46.79-13.33-7.12-20.33-20.4-29.95-30.68-31.81-33.91-71.73-38.45-91.26-75.27,58.66,25.76,86.25,16.16,150.79,41.91,32.06,12.78,44.14,36.45,66.38,54.4,19.37,15.66,36.83,28.96,54.25,44.99,1.93-28.1-50.07-45.13-25.78-61.03,26.28,6.96,119.12,51.65,120.65,67.95-18.89,11.39-45.14,62.85-21.55,72.27,7.93,55.59,16.51,23.49,36.1,72.42l-.05.03Z"/>
  </g>
  <g id="Layer_3" data-name="Layer 3">
    <polygon class="cls-1" points="89.7 39.89 -86.47 42.19 -79.77 -1444.53 51.14 -1445.73 89.7 39.89"/>
  </g>
</svg>