<svg width="1160" height="2457" viewBox="0 0 1160 2457" fill="none" xmlns="http://www.w3.org/2000/svg">
<path d="M932.93 157.959C934.183 157.467 935.382 156.975 936.581 156.448C935.273 152.546 936.036 148.362 939.796 144.601C941.867 142.527 943.992 140.453 946.281 138.414L921.486 133.211C913.149 141.085 921.486 154.057 932.984 157.995L932.93 157.959Z" fill="#862600"/>
<path d="M-1180.64 17.5892C-1174.7 18.6438 -1167.84 17.2377 -1153.4 16.183L-1166.8 24.2685C-1168.44 25.2528 -1166.09 27.6081 -1164.24 29.4713C-1156.72 29.19 -1146.31 27.1159 -1143.7 29.5767L-1132.75 39.8065L-1123.05 35.6583C-1120.43 39.0331 -1106.86 49.8254 -1099.94 48.6302C-1088.22 46.6264 -1073.29 35.6232 -1066.26 29.3658L-1046.54 38.9277L-1049.7 28.8033C-1050.02 27.7136 -1044.19 27.3972 -1042.61 27.819L-1030.62 30.8071L-1033.62 16.6049C-1008.5 17.2025 -985.069 24.0927 -972.808 36.1154L-923.6 23.8466C-913.519 21.3506 -897.389 12.738 -883.548 16.7455C-874.992 19.2063 -868.29 23.4951 -854.013 32.8461C-865.456 38.5059 -917.77 46.6616 -919.186 45.6772C-920.985 44.4468 -927.034 40.4745 -924.69 39.8768L-907.034 35.3771L-957.114 33.1273C-948.34 45.4663 -944.689 50.9152 -944.744 62.0942L-940.493 67.2969C-938.858 66.9454 -937.605 66.629 -936.624 66.4181L-945.343 83.96L-955.479 65.1877C-960.274 67.3672 -967.74 72.2185 -969.102 70.3905L-978.911 57.6648L-993.679 71.8318L-1038.53 65.4338L-1041.31 85.9989C-1041.96 90.7447 -1020.98 93.4164 -1013.19 90.9204L-998.583 101.045C-984.469 99.6387 -965.669 91.7993 -955.097 85.2255L-938.423 89.3737L-913.247 83.9248L-930.412 102.064C-896.299 94.8225 -886.327 103.576 -868.78 115.282C-853.849 125.231 -844.912 138.554 -857.282 156.201L-838.428 163.865C-877.608 168.505 -866.764 158.381 -887.58 170.298C-889.706 171.529 -882.131 173.427 -879.352 173.814L-866.165 175.642L-885.292 188.332L-843.877 197.578L-867.036 204.046C-856.519 206.683 -845.839 206.366 -845.512 209.389L-843.822 225.455L-830.417 226.193L-828.619 237.302C-819.954 236.739 -797.667 233.575 -789.602 237.372L-761.592 250.73L-785.406 258.605L-761.865 279.24C-759.303 281.455 -754.018 289.541 -757.614 290.912L-773.09 296.818L-752.492 296.22C-748.95 296.114 -750.094 305.536 -747.969 307.047C-736.144 306.907 -714.674 306.344 -701.868 305.711L-678.599 304.551C-670.044 304.129 -653.532 300.86 -644.813 299.313L-639.637 290.876C-639.092 289.962 -635.604 294.075 -634.787 294.919L-630.1 299.876C-621.872 296.677 -613.589 294.075 -604.325 292.072L-588.685 288.697C-577.514 286.306 -597.513 289.224 -603.671 268.905C-604.488 266.234 -589.884 265.425 -586.942 267.358L-576.697 274.003L-567.324 264.089C-563.782 267.429 -558.878 273.194 -562.474 273.862L-580.239 277.131L-570.539 296.642L-544.982 282.967C-541.712 291.509 -539.642 296.15 -538.661 300.227C-537.734 304.094 -548.687 311.793 -552.447 313.656C-544.6 318.261 -539.042 323.324 -549.232 319.738L-562.038 322.199C-563.292 322.445 -561.875 324.097 -560.948 324.695L-556.099 327.647L-574.626 331.971C-578.277 332.815 -574.953 339.776 -572.719 341.85C-570.485 343.924 -562.692 347.545 -560.349 345.576C-555.717 341.674 -551.412 335.944 -548.415 337.174L-529.778 344.943L-532.612 326.487L-478.01 342.236C-478.337 348.248 -476.593 358.864 -472.234 361.114C-449.019 347.51 -424.661 343.01 -401.011 352.923C-394.363 349.97 -386.679 344.24 -381.23 346.103L-355.673 354.822C-343.63 344.627 -321.778 340.022 -301.724 342.342C-310.77 335.944 -313.549 330.565 -310.552 322.304L-284.505 333.448C-299.763 302.231 -227.505 295.482 -262.653 280.119C-267.775 277.905 -280.908 277.307 -283.306 280.858C-285.921 284.724 -291.044 292.95 -295.621 294.146C-302.814 296.044 -317.909 286.588 -316.819 281.912C-315.511 276.393 -304.613 271.718 -293.278 268.624L-266.522 240.044C-263.743 239.833 -252.027 240.606 -252.844 238.673L-256.332 230.13L-230.611 222.08L-213.173 238.462C-211.92 239.657 -212.792 245.106 -215.026 244.825L-226.36 243.489L-236.387 242.294C-238.349 242.047 -241.51 246.161 -239.766 246.793L-231.265 249.781C-238.403 254.141 -242.054 258.922 -245.923 265.987L-254.315 281.315L-217.151 274.987C-213.228 274.319 -202.056 270.663 -202.656 268.343L-204.727 259.625C-172.14 269.081 -154.048 280.26 -138.899 300.579C-125.112 319.035 -93.7241 336.717 -91.2719 358.548C-85.8226 406.849 -77.5396 458.42 -80.9727 506.441L-88.2202 657.955L46.5958 606.524C31.3378 547.184 51.7183 453.745 49.266 393.315C74.4419 365.087 100.326 336.506 130.352 311.969C153.457 293.091 175.472 276.112 188.169 253.613C196.289 239.2 211.71 231.747 239.665 238.286L209.694 253.93L213.672 275.971C214.053 278.116 218.413 282.826 220.32 284.478C222.227 286.131 230.292 280.717 232.799 278.713L256.504 259.871C260.046 257.058 272.688 268.87 274.214 271.858C279.445 271.155 287.837 268.483 292.251 269.784L312.196 275.69C308.272 268.905 303.204 263.808 296.12 257.234C308.926 256.953 316.283 267.007 320.315 277.412L347.725 258.289C350.45 260.328 354.373 265.917 356.444 264.616C358.515 263.316 365.762 258.464 368.269 257.586L403.308 245.106C396.442 258.183 389.739 265.847 377.424 278.502C423.525 300.72 385.87 275.584 438.783 299.946L395.897 318.824C420.909 315.695 436.113 320.476 448.537 332.569C468.7 314.816 522.212 326.487 529.46 308.524C530.986 304.797 531.967 298.505 530.005 296.185C532.402 299.032 497.581 273.37 479.871 275.655C502.595 270.382 501.941 252.91 507.445 259.589L513.003 266.339L567.333 257.902L579.376 256.039C581.991 255.617 578.994 250.942 577.686 247.532C576.814 245.809 575.888 244.473 576.978 245.036C578.34 245.739 583.463 248.094 584.716 248.832L609.238 262.999L642.86 282.299C647.438 283.178 657.355 283.037 660.135 285.217L672.886 295.095L676.21 280.928L682.695 286.517C683.839 283.107 684.656 279.662 684.929 276.077C685.147 273.37 686.073 270.979 687.545 268.905L674.357 261.031L708.089 241.415C722.202 233.189 756.587 237.829 761.11 252.559C761.655 254.351 761.601 255.863 761.001 257.164C766.342 251.574 773.426 247.11 781.763 244.438C780.837 241.063 780.183 237.653 779.856 234.103C779.311 227.986 785.796 221.729 794.515 218.494C791.681 210.971 794.569 202.394 806.394 198.527C827.428 191.672 849.825 189.07 872.276 186.223C876.908 176.661 886.499 169.63 903.773 165.974C915.707 163.443 924.971 161.299 932.982 158.205C921.484 154.303 913.201 141.296 921.484 133.422L946.278 138.624C947.259 137.746 948.24 136.867 949.275 135.953C936.633 128.606 926.879 125.125 914.944 120.696L926.006 113.771L899.795 111.029C915.217 111.239 920.285 106.599 921.429 99.955C921.974 96.6857 918.977 90.7798 915.653 85.788C913.746 82.9053 916.634 74.2574 922.029 72.4646L933.854 68.5625C943.935 73.3434 957.558 78.4056 962.899 75.6285L982.843 65.258C985.023 64.1331 997.447 65.012 996.03 63.3597L987.639 53.5869L1016.14 33.4437C1010.25 20.8234 1017.12 9.15222 1035.59 3.52759L1037.61 -2.3783C1040.12 -9.69031 1059.24 7.88666 1067.36 -9.86609L1022.84 -31.064L1056.14 -28.4977L1044.53 -43.1569L1053.79 -43.7194C1063.06 -44.2819 1045.51 -57.6404 1054.88 -65.1633C1058.53 -68.1163 1068.29 -73.2136 1071.39 -76.4478L1085.29 -90.9664C1087.85 -93.6381 1083.6 -102.602 1087.25 -104.747L1108.23 -116.945L1064.04 -123.66C1063.11 -121.199 1062.02 -118 1061.86 -117.894C1060.82 -117.121 1055.48 -117.894 1053.74 -124.081C1049.54 -139.022 1082.46 -136.561 1074.72 -142.502L1067.85 -147.775C1077.77 -147.037 1087.74 -144.682 1087.09 -146.896L1084.31 -156.212C1083.44 -159.235 1082.29 -167.919 1082.02 -171.891C1081.86 -174.352 1090.96 -174.246 1092.81 -174.949C1089.32 -181.523 1089.92 -193.37 1097.61 -194.143L1126.76 -197.096C1123.87 -200.928 1116.73 -206.166 1119.18 -208.451L1130.46 -219.068C1128.5 -225.782 1109.21 -237.594 1098.64 -236.469C1091.88 -235.766 1080.77 -235.344 1076.19 -236.398C1071.07 -237.594 1083.33 -250.566 1088.12 -251.831C1088.83 -252.007 1080.22 -253.729 1077.72 -254.327C1072.97 -255.417 1064.53 -261.569 1066.87 -264.381C1068.72 -266.631 1075.81 -272.607 1079.46 -273.556L1110.74 -281.571L1137.39 -272.22L1129.16 -283.997C1128.07 -285.544 1132.97 -288.04 1135.59 -288.145L1148.77 -288.673L1150.52 -305.019C1150.74 -307.058 1142.83 -312.683 1145.78 -313.667L1160 -318.272L1140.6 -325.865L1145.23 -333.529C1146 -334.795 1143.43 -337.255 1142.13 -339.118L1146.7 -345.27L1097.93 -344.286L1071.07 -356.66L1074.39 -364.183C1066.54 -368.085 1059.73 -376.452 1061.1 -382.78C1084.96 -383.94 1102.62 -385.416 1129.59 -389.389C1119.46 -395.084 1111.07 -396.912 1101.47 -398.986C1102.02 -405.103 1103.22 -420.57 1096.3 -423.629L1077.99 -427.531C1060.11 -431.327 1109.05 -464.689 1062.46 -479.945L1036.9 -476.395C1051.18 -488.558 1060.01 -499.667 1050.14 -514.713L1032.92 -491.863C989.491 -488.875 1017.72 -464.653 974.942 -475.305L996.957 -485.816C1001.43 -487.961 998.428 -500.37 993.687 -498.366L977.503 -491.089C974.942 -489.929 968.457 -495.202 966.168 -496.995L939.739 -517.42C935.38 -513.518 914.291 -499.878 906.661 -504.061C893.747 -511.162 889.932 -512.604 875.982 -507.647C865.192 -503.815 868.462 -492.706 872.603 -488.136C873.639 -486.976 874.238 -482.617 874.565 -481.316C874.892 -480.051 868.189 -484.832 867.045 -486.414L841.324 -521.357L823.886 -513.166C820.562 -511.619 811.189 -516.681 808.029 -518.298L797.185 -523.923C794.951 -525.083 789.883 -520.021 785.196 -516.681C781.491 -523.677 779.692 -533.626 786.232 -541.676C792.934 -534.575 809.173 -523.958 816.53 -528.247C833.423 -538.02 839.744 -552.503 838.382 -563.999L818.11 -564.807C825.249 -579.08 866.391 -580.943 863.013 -588.501L857.236 -601.508L829.172 -584.318C828.082 -583.65 817.62 -584.845 818.71 -585.548L826.557 -590.54C824.159 -594.899 817.347 -602.668 811.298 -608.328L804.16 -615.042C802.961 -616.167 811.898 -622.038 809.882 -622.46C801.49 -624.217 782.308 -625.764 772.772 -625.94L763.29 -632.338C754.19 -638.49 744.871 -618.312 738.659 -622.179C723.074 -624.112 720.24 -624.569 732.883 -624.393C742.964 -638.631 748.849 -651.427 721.33 -659.371L710.868 -630.264L702.149 -635.115C699.969 -632.83 694.193 -625.342 693.484 -622.46C719.151 -600.559 676.482 -566.846 676.973 -579.994C676.973 -581.154 677.354 -582.525 678.063 -585.126L679.916 -592.052C680.188 -593.176 676.21 -593.352 675.393 -592.368L670.652 -586.743C668.581 -591.243 667.109 -594.266 669.235 -595.778L680.896 -604.039C651.743 -605.621 636.92 -595.883 609.183 -586.181L636.375 -609.066C627.547 -614.374 612.943 -615.64 604.497 -613.46C597.849 -611.773 600.573 -597.852 597.849 -593.704L579.376 -565.44L551.475 -573.244L580.901 -592.227L560.739 -590.856C560.357 -591.243 559.922 -591.63 559.486 -592.052C547.443 -610.332 573.654 -604.883 570.984 -622.354C558.723 -622.073 546.135 -622.319 539.541 -623.163C548.315 -631.916 553.219 -635.432 553.6 -639.158C553.764 -640.564 544.772 -644.115 546.189 -645.204L555.998 -652.798C555.998 -652.798 549.459 -655.926 549.568 -655.856L531.204 -654.942C528.642 -654.801 526.953 -649.493 525.318 -647.454C523.956 -645.732 516.055 -646.54 513.003 -646.575C509.951 -646.575 510.006 -649.071 510.06 -655.258C488.536 -650.899 462.215 -652.903 437.312 -655.926L472.133 -677.476L414.316 -667.211L422.871 -686.194L410.011 -678.284C408.213 -677.159 404.562 -680.007 404.889 -681.519C405.107 -682.538 406.36 -687.741 404.943 -688.233C376.171 -698.955 368.487 -652.657 353.174 -661.938L344.946 -683.804C346.744 -683.557 351.594 -682.854 357.37 -682.046L358.297 -699.939C352.63 -699.236 331.323 -698.498 331.486 -702.752L332.249 -721.418C313.83 -720.012 292.469 -721.91 274.922 -729.68L258.683 -726.234C254.16 -727.5 251.708 -728.695 249.964 -728.027L238.521 -723.809L247.512 -736.218C248.711 -737.87 251.545 -744.725 248.82 -744.198L239.447 -742.405L224.516 -762.162L188.115 -760.334L171.167 -746.975L154.383 -764.412C145.229 -754.498 146.809 -749.471 151.005 -738.714L133.131 -740.964C128.227 -741.597 116.62 -747.081 113.187 -744.725L98.2554 -734.566C89.5909 -739.698 76.1311 -741.737 66.4314 -739.206L68.0662 -755.518C68.3386 -758.189 52.8081 -759.244 51.5002 -758.33C50.1924 -745.358 42.6178 -736.253 25.1255 -730.98C13.6274 -727.535 -2.55701 -734.32 -14.1095 -742.968L-25.4987 -739.136C-28.4957 -738.116 -34.6534 -741.105 -40.8112 -743.003L-52.3092 -735.023C-54.5435 -733.476 -56.9412 -732.175 -58.1945 -733.23L-63.3169 -737.554L-78.575 -716.075C-83.1523 -718.958 -88.1658 -723.492 -89.0376 -722.016L-96.0128 -710.204L-109.037 -718.887C-112.415 -721.137 -110.671 -728.027 -109.8 -732.281L-136.992 -723.492L-101.517 -746.729L-105.331 -758.295C-105.985 -760.228 -113.342 -754.322 -117.156 -751.827L-126.965 -767.822C-132.687 -767.927 -140.643 -766.908 -142.495 -768.595L-150.887 -776.259C-161.023 -768.208 -171.431 -758.154 -185.872 -760.615C-194.536 -762.091 -207.342 -766.697 -215.026 -769.896C-204.182 -769.263 -191.103 -768.7 -187.616 -771.724C-184.728 -774.255 -182.711 -780.899 -182.493 -783.852C-190.722 -781.391 -197.915 -776.751 -200.858 -778.614L-215.843 -788L-230.502 -762.338L-250.119 -756.397L-261.454 -768.665L-293.605 -764.482L-277.148 -741.597C-275.622 -739.98 -266.358 -734.46 -269.083 -735.199C-271.154 -735.761 -278.565 -732.035 -279.055 -730.664C-280.091 -727.781 -279.328 -721.735 -282.761 -721.032L-300.199 -717.446L-265.922 -714.704L-284.995 -708.095L-296.984 -703.912C-290.88 -706.021 -344.829 -706.865 -337.962 -719.801L-304.177 -726.516C-317.364 -727.57 -333.712 -727.957 -349.133 -727.851C-376.489 -727.676 -387.497 -758.435 -395.671 -749.577L-399.812 -745.147L-418.503 -764.658L-434.96 -750.561C-438.121 -754.92 -440.41 -761.916 -444.497 -761.881L-462.534 -761.74L-475.776 -761.459C-478.5 -761.388 -480.353 -756.045 -481.77 -753.69L-515.556 -754.147L-519.588 -732.457C-520.514 -727.465 -528.362 -722.227 -538.17 -720.012L-532.394 -741.667L-556.262 -760.685C-558.66 -762.584 -559.477 -763.99 -561.711 -763.814L-570.485 -763.076L-568.359 -779.458L-615.006 -764.552C-657.401 -790.637 -625.359 -749.26 -656.856 -742.054L-703.775 -751.053L-713.257 -731.086C-715.001 -727.43 -727.806 -726.059 -738.433 -726.059L-737.561 -714.95L-775.379 -719.168C-762.355 -712.454 -753.309 -708.552 -739.849 -702.998L-754.726 -698.92C-756.579 -698.392 -735.435 -682.925 -763.99 -666.437L-807.421 -698.463L-837.392 -673.257L-818.211 -671.992C-816.848 -671.078 -812.761 -665.945 -815.268 -664.574L-827.856 -657.719C-822.57 -651.532 -818.211 -646.646 -818.592 -641.584C-845.675 -653.782 -856.901 -667.879 -889.052 -662.746C-825.022 -640.951 -866.437 -638.666 -836.902 -627.417C-831.344 -625.307 -821.971 -622.214 -824.586 -621.054L-839.299 -614.55L-858.863 -640.67C-866.383 -640.037 -880.769 -636.135 -884.474 -633.006C-888.016 -630.018 -878.807 -624.358 -871.505 -620.069L-888.016 -616.308C-877.227 -611.14 -868.617 -605.269 -876.682 -599.996C-882.24 -600.735 -890.905 -605.516 -901.204 -611.246L-923.164 -594.723L-866.601 -589.485C-876.518 -582.138 -879.461 -577.709 -880.224 -571.24L-896.299 -561.257C-870.742 -558.479 -850.362 -555.175 -833.85 -547.125C-862.078 -541.852 -875.101 -538.617 -901.803 -538.653C-887.09 -531.165 -868.399 -526.841 -844.531 -526.63C-850.198 -522.693 -859.462 -516.576 -864.257 -513.939C-868.399 -511.654 -882.731 -518.931 -883.275 -519.107C-882.186 -506.592 -931.556 -497.769 -942.619 -495.87C-953.081 -494.077 -967.522 -479.91 -965.942 -474.743C-957.659 -468.556 -944.744 -458.044 -952.1 -456.252L-965.506 -452.947C-967.031 -452.56 -965.506 -451.998 -964.143 -451.014L-957.877 -446.303L-1009.32 -456.744L-986.268 -436.46L-1009.97 -428.972C-1014.6 -427.496 -1027.19 -433.929 -1031.93 -435.23L-1056.45 -426.687L-1030.19 -414.524C-1025.72 -412.344 -1022.07 -400.04 -1027.52 -398.951L-1047.08 -395.119L-1058.58 -368.894L-1063.59 -382.745C-1064.57 -385.522 -1075.47 -387.244 -1080.27 -389.037L-1083.32 -412.696L-1119.78 -392.377L-1098.58 -374.448L-1076.67 -376.909L-1098.58 -361.301L-1124.35 -376.276C-1120.1 -380.741 -1116.83 -384.678 -1120.21 -382.885C-1132.8 -385.346 -1135.96 -386.401 -1136.01 -384.397L-1136.29 -376.628L-1136.72 -350.614C-1146.26 -346.29 -1147.95 -345.763 -1145.39 -345.552C-1143.7 -345.411 -1136.78 -343.232 -1135.85 -342.318L-1118.25 -324.987C-1119.45 -323.299 -1130.02 -315.565 -1126.48 -314.616L-1109.53 -310.152C-1111.11 -306.32 -1110.57 -297.602 -1107.24 -296.02C-1085.55 -301.926 -1066.15 -300.906 -1049.97 -292.926L-1020.33 -278.337L-993.188 -296.477C-991.935 -297.32 -989.319 -303.156 -988.284 -302.277C-973.571 -289.165 -963.489 -304.422 -958.748 -292.012C-956.351 -285.755 -962.073 -278.794 -973.462 -275.736L-971.772 -253.87L-978.203 -247.999C-979.456 -246.839 -966.541 -244.976 -966.705 -243.57L-970.029 -210.56C-986.159 -219.525 -993.897 -233.586 -1000.27 -245.574C-1022.61 -245.714 -1031.22 -258.651 -1042.01 -268.811L-1059.62 -285.368C-1072.64 -279.779 -1079.18 -277.247 -1089.42 -274.611L-1113.67 -268.354L-1151.22 -252.921L-1143.86 -265.858C-1142.88 -267.545 -1154.87 -268.74 -1158.25 -269.373C-1168.82 -270.779 -1173.62 -270.182 -1164.62 -265.436L-1156.99 -234.781L-1139.72 -249.195C-1139.72 -249.195 -1133.78 -242.55 -1131.16 -243.957L-1117.87 -251.128C-1113.95 -253.237 -1106.86 -257.807 -1104.79 -255.944C-1103.21 -254.538 -1098.8 -249.335 -1096.07 -248.913L-1063.92 -244.132C-1056.95 -245.082 -1054.66 -244.8 -1058.74 -241.672C-1061.63 -236.363 -1062.12 -224.446 -1056.29 -223.181C-1051.6 -222.161 -1045.01 -226.028 -1038.15 -227.434C-1033.51 -228.383 -1040.87 -234.711 -1044.08 -241.988L-1020.76 -227.926C-1016.89 -233.059 -1013.79 -238.824 -1011.01 -237.805C-1008.28 -236.75 -1002.02 -233.692 -1003.92 -232.075L-1010.95 -226.169L-997.112 -212.037C-1007.08 -209.084 -1017.98 -206.412 -1016.4 -203.776L-1009.48 -192.104L-1033.4 -191.331L-1025.99 -172.946L-1063.21 -174.457L-1051.93 -192.421L-1069.37 -207.748C-1074.98 -203.143 -1080.98 -196.78 -1085.17 -197.905L-1107.57 -204.057C-1098.25 -192.175 -1089.21 -182.507 -1079.56 -173.649L-1103.59 -160.325L-1094.06 -156.529C-1092.37 -155.861 -1097.32 -153.294 -1097.65 -153.541L-1124.46 -149.638L-1117.6 -155.193C-1116.12 -156.388 -1117.71 -160.958 -1120.05 -160.466L-1133.89 -157.618C-1143.04 -155.755 -1146.8 -147.635 -1144.68 -140.955C-1142.28 -133.221 -1130.46 -133.397 -1120.59 -137.756L-1108.01 -143.346C-1089.59 -151.502 -1116.83 -123.906 -1108.01 -120.25L-1084.19 -110.371L-1104.57 -100.81L-1082.94 -90.4391L-1105.77 -77.1509C-1113.51 -81.6506 -1119.45 -84.709 -1126.1 -87.0994C-1130.73 -88.7869 -1134.71 -83.3731 -1138.41 -78.4515C-1141.03 -74.9362 -1136.29 -71.0692 -1128.71 -65.7258L-1142.06 -62.2455C-1140.21 -61.0854 -1130.78 -54.7929 -1133.89 -52.754L-1144.62 -45.7583L-1131.6 -32.4349L-1094.87 -45.0201C-1088.99 -32.1537 -1089.97 -23.3652 -1097.16 -15.1041C-1095.64 -13.3112 -1088.12 -8.17871 -1090.89 -7.44049C-1137.21 4.89862 -1113.35 -16.6508 -1147.84 6.37506L-1184.35 10.2772L-1187.07 -6.70221C-1187.4 -8.81146 -1204.29 -7.8623 -1203.26 -5.85852L-1198.57 3.17609C-1196.34 7.53516 -1188.93 16.2182 -1180.26 17.765L-1180.64 17.5892ZM817.075 141.05C824.758 145.69 831.189 148.819 840.289 152.299L852.114 156.834C854.512 157.748 856.8 152.159 857.89 150.542C864.702 140.769 836.202 150.19 826.72 130.398C833.586 130.082 841.052 131.418 841.651 129.801L845.847 117.743C860.233 126.602 872.058 136.269 878.706 148.081L913.255 157.818C890.749 161.088 874.402 160.42 854.457 158.873L845.248 166.291L811.571 157.783C811.298 157.994 816.421 154.092 818.001 152.897C820.017 151.315 818.001 146.288 817.129 141.05H817.075ZM718.987 -555.21L745.253 -551.906L728.196 -563.647L792.062 -552.398C765.579 -536.543 743.727 -554.472 705.473 -537.703L717.843 -531.095C720.622 -529.618 705.037 -525.259 703.566 -526.841L692.231 -539.11L718.987 -555.175V-555.21ZM540.522 209.741C552.674 206.155 566.624 207.632 571.855 218.916L536.163 226.299C528.534 220.006 533.056 211.921 540.522 209.741ZM456.929 220.815V235.755C456.875 238.638 467.61 243.454 469.245 240.817L474.476 232.345C475.566 230.587 483.849 232.732 484.83 234.56C491.042 245.668 493.985 255.054 485.375 259.343C471.152 256.039 456.984 252.348 448.265 248.586L418.948 235.896L456.875 220.815H456.929ZM375.571 173.778C384.999 171.915 373.718 172.197 381.075 155.112C382.383 152.124 395.407 156.377 401.074 158.135C405.76 159.611 420.528 157.326 422.326 160.49C424.179 163.689 426.631 171.634 426.195 174.974C425.651 178.911 376.661 188.156 363.201 176.239L375.571 173.778ZM92.4791 258.711L101.743 250.59C103.65 248.938 112.641 253.508 115.802 253.859L133.894 255.969C138.526 256.496 135.856 265.636 131.987 268.483C101.634 290.63 79.2917 309.192 49.702 334.503C38.3674 306.45 66.6493 281.314 92.4791 258.746V258.711ZM-319.653 -692.944C-306.029 -696.389 -286.63 -696.951 -278.674 -693.33C-276.004 -692.135 -278.674 -682.643 -281.834 -682.327C-286.139 -681.94 -297.256 -680.675 -300.798 -679.058L-322.868 -668.758L-325.048 -684.507L-299 -685.913L-319.653 -692.908V-692.944ZM-323.413 -649.036C-310.934 -655.505 -296.82 -658.914 -283.033 -650.337L-294.204 -647.454C-298.673 -651.145 -302.051 -654.872 -303.032 -653.852L-311.424 -644.642C-313.876 -641.97 -318.018 -634.236 -320.579 -635.502L-330.497 -640.423C-333.058 -641.689 -326.464 -647.454 -323.413 -649.036ZM-589.394 -578.131C-606.069 -584.634 -623.888 -585.935 -651.625 -586.603C-651.571 -584.142 -649.772 -577.041 -645.031 -575.951L-619.529 -570.256L-643.342 -552.644C-645.14 -551.308 -657.565 -551.308 -660.289 -551.203C-663.886 -551.027 -660.126 -545.191 -659.799 -539.391C-680.888 -545.297 -679.798 -563.19 -662.578 -574.861L-677.4 -575.318C-680.888 -575.424 -686.664 -584.036 -685.356 -586.286L-663.232 -625.483C-657.183 -636.24 -665.902 -652.27 -641.162 -657.93L-613.752 -641.127C-611.3 -639.615 -595.443 -639.404 -595.824 -637.224L-597.786 -626.186C-600.129 -625.729 -611.791 -625.061 -616.749 -625.342C-622.417 -625.659 -629.61 -633.111 -637.239 -636.732C-645.958 -628.682 -644.323 -620.104 -643.015 -606.711L-615.932 -610.507L-613.97 -594.231L-598.44 -600.278C-603.29 -598.379 -571.629 -587.657 -589.285 -578.095L-589.394 -578.131ZM-529.124 -618.066C-531.904 -631.459 -527.98 -639.72 -504.82 -649.528L-523.076 -652.059L-510.76 -654.872C-508.471 -655.399 -501.169 -657.086 -502.913 -658.176L-511.905 -663.731C-507.273 -664.785 -498.009 -666.473 -497.791 -664.328C-495.175 -638.912 -501.115 -631.494 -527.272 -615.57C-547.053 -603.547 -572.719 -592.122 -594.08 -606.359C-536.208 -620.702 -596.532 -604.988 -540.949 -627.241C-538.17 -628.366 -533.647 -621.475 -529.124 -618.101V-618.066ZM-560.077 -711.645C-573.155 -710.731 -584.489 -709.466 -590.593 -706.829C-592.336 -706.091 -583.89 -701.486 -585.361 -700.537L-595.715 -693.787C-597.731 -686.827 -572.446 -683.241 -567.215 -677.792L-540.023 -649.528C-535.991 -645.204 -560.948 -637.998 -566.343 -641.865L-594.843 -662.324L-590.102 -667.422C-588.849 -668.758 -587.759 -674.523 -590.102 -674.206L-604.216 -672.308L-622.308 -697.9C-618.057 -709.22 -604.761 -715.477 -587.16 -722.403L-560.077 -711.645ZM-620.237 -756.221L-592.227 -742.968C-588.467 -741.175 -599.966 -730.98 -604.379 -731.754C-608.739 -732.527 -615.333 -735.41 -620.073 -738.327L-633.315 -746.589C-636.203 -748.417 -623.507 -757.768 -620.291 -756.221H-620.237ZM-676.474 -715.864L-677.782 -736.921L-647.865 -724.195L-652.987 -701.134L-634.187 -698.111L-637.075 -671.183L-646.121 -676.21C-648.355 -677.441 -652.769 -677.792 -655.93 -678.249L-653.205 -687.565C-652.497 -689.955 -660.834 -692.346 -664.213 -692.662C-665.848 -681.343 -667.374 -679.831 -671.787 -686.581L-668.082 -700.818C-667.101 -704.58 -677.455 -704.65 -685.52 -705.669L-693.639 -714.141C-695.329 -715.934 -677.128 -714.282 -676.528 -715.829L-676.474 -715.864ZM-680.997 -516.4C-674.131 -517.349 -660.071 -512.393 -658.273 -508.42L-650.426 -491.019C-663.232 -497.769 -669.826 -502.092 -679.308 -509.088L-685.52 -501.671C-686.828 -500.124 -695.165 -503.956 -694.402 -505.643C-692.604 -509.756 -686.61 -515.627 -680.997 -516.4ZM-772.872 -598.063L-752.873 -594.829L-753.909 -563.331L-774.017 -563.788C-794.833 -564.245 -758.977 -579.009 -772.818 -598.063H-772.872ZM-938.858 -492.32L-925.235 -489.296C-922.02 -488.593 -928.287 -484.832 -931.556 -481.316L-913.029 -482.969C-910.522 -483.18 -912.92 -477.59 -912.593 -476.36L-886.654 -458.712C-895.264 -458.255 -900.059 -458.818 -902.512 -457.482L-912.647 -452.033C-916.407 -455.373 -924.745 -461.279 -927.251 -464.513L-942.51 -484.41C-943.654 -485.886 -941.256 -492.812 -938.804 -492.284L-938.858 -492.32ZM-972.917 -372.023L-967.958 -384.713C-953.844 -381.831 -945.725 -384.397 -934.554 -388.756C-933.736 -387.912 -929.377 -382.815 -926.543 -382.077L-912.702 -378.421L-972.862 -372.023H-972.917ZM-1028.55 -85.3417C-1026.54 -88.9275 -1007.96 -89.2438 -1005.01 -85.9394C-1002.07 -82.6349 -996.621 -72.8269 -998.91 -71.6669C-1008.56 -72.1238 -1019.56 -72.9675 -1024.69 -73.8112C-1029.32 -74.5847 -1030.46 -81.8967 -1028.55 -85.3417ZM-1038.85 -20.2717L-988.447 0.469177L-991.335 7.71088C-991.88 9.04675 -995.804 9.11707 -998.91 9.82019C-1002.07 10.5584 -998.42 5.14465 -995.913 -0.374512C-996.403 -1.11273 -1005.61 -1.46429 -1007.08 0.223083L-1014.93 9.29285L-1057.16 -5.61243L-1038.85 -20.3068V-20.2717Z" fill="#862600"/>
<path d="M289.31 2122.02C292.361 2124.44 295.413 2126.8 298.464 2129.12L309.581 2122.79L289.255 2122.02H289.31Z" fill="#862600"/>
<path d="M131.992 268.483C101.64 290.63 79.2976 309.191 49.7078 334.502C38.3733 306.449 66.6552 281.314 92.4849 258.745L101.749 250.624C103.656 248.972 112.647 253.542 115.808 253.894L133.9 256.003C138.532 256.53 135.861 265.67 131.992 268.518V268.483Z" fill="#862600"/>
<path d="M719.476 258.887C720.838 258.992 722.146 259.168 723.509 259.344C733.426 255.09 748.739 254.633 759.202 258.922C759.801 258.219 760.4 257.586 761 256.918C761.545 255.653 761.654 254.106 761.109 252.313C756.586 237.583 722.201 232.943 708.087 241.169L674.356 260.785L687.543 268.66C692.829 261.066 705.362 257.621 719.422 258.887H719.476Z" fill="#862600"/>
<path d="M811.57 157.786C811.297 157.997 816.42 154.095 818 152.9C820.016 151.318 818 146.291 817.128 141.053C824.811 145.694 831.242 148.822 840.342 152.302L852.167 156.837C854.565 157.751 856.853 152.162 857.943 150.545C864.755 140.772 836.255 150.193 826.773 130.402C833.639 130.085 841.105 131.421 841.704 129.804L845.9 117.746C860.287 126.605 872.112 136.272 878.76 148.084L913.308 157.822C890.803 161.091 874.455 160.423 854.51 158.876L845.301 166.294L811.624 157.786H811.57Z" fill="#862600"/>
<path d="M484.887 234.597C491.099 245.705 494.042 255.092 485.432 259.38C471.209 256.076 457.041 252.385 448.322 248.623L419.005 235.933L456.932 220.852V235.792C456.877 238.675 467.612 243.491 469.247 240.854L474.479 232.382C475.568 230.624 483.851 232.769 484.832 234.597H484.887Z" fill="#862600"/>
<path d="M426.145 174.975C425.6 178.912 376.61 188.157 363.151 176.24L375.52 173.779C384.948 171.916 373.668 172.197 381.024 155.113C382.332 152.125 395.356 156.378 401.023 158.136C405.71 159.612 420.477 157.327 422.276 160.491C424.074 163.655 426.581 171.635 426.145 174.975Z" fill="#862600"/>
<path d="M571.799 218.919L536.106 226.301C528.477 220.009 533 211.923 540.465 209.744C552.617 206.158 566.568 207.634 571.799 218.919Z" fill="#862600"/>
<path d="M-88.2109 657.778L-104.559 1092L-122.378 1248.37L-117.201 1460.17L90.0907 1494.76L54.7246 1107.33L46.6051 606.348L-88.2109 657.778Z" fill="#862600"/>
<path d="M-194.856 1949.66C-220.825 1954.87 -218.997 1962.02 -241.481 1968.84C-328.593 1995.2 -351.002 2024.1 -369.296 2031.46C-455.951 2066.31 -540.039 2038.18 -596.795 2083.09C-618.58 2100.35 -642.483 2111.62 -672.473 2122.99L-708.938 2156.63C-758.202 2202.09 -808.242 2179.32 -829.678 2210.69L-735.765 2186.7C-700.316 2177.64 -678.979 2155.36 -650.759 2140.1C-624.483 2125.9 -597.705 2113.76 -573.932 2098.04C-548.067 2080.92 -514.012 2074.78 -477.904 2073.94L-434.367 2072.98C-473.796 2108.3 -512.557 2137.59 -564.852 2160.11C-589.694 2170.78 -607.97 2185.12 -633.975 2194.14L-712.044 2221.23C-745.232 2232.73 -775.209 2247.78 -811.134 2247.28C-816.37 2248.9 -819.988 2251.52 -824.093 2255.81C-826.424 2258.26 -828.444 2260.78 -830.36 2263.37L-795.513 2267.18C-799.82 2286.55 -818.607 2298.21 -835.04 2311.66C-862.922 2334.43 -894.649 2343.9 -937.291 2348.79C-968.037 2352.32 -994.527 2357.24 -1024.68 2350.18C-1026.76 2352.22 -1028.95 2354.23 -1031.18 2356.21C-1010.76 2361.33 -997.71 2367.09 -956.534 2363.89C-944.63 2362.97 -928.026 2365.2 -921.542 2370.12C-934.46 2386.92 -958.9 2393.98 -983.438 2395.42L-1052.67 2399.56C-1040.61 2410.54 -1021.23 2406.46 -1004.44 2407.49C-949.885 2410.86 -908.31 2397.99 -874.047 2371.2C-848.186 2350.95 -816.807 2333.39 -794.6 2310.68C-779.238 2294.97 -758.806 2259.26 -745.411 2263.89C-742.089 2265.03 -737.611 2270.26 -737.306 2272.97L-735.017 2291.82C-690.635 2268.28 -734.596 2233.05 -668.33 2224.55C-630.022 2219.66 -609.905 2204.37 -580.244 2191.85L-483.629 2151.14C-470.837 2156.7 -461.11 2170.04 -461.992 2181.59C-464.186 2209.69 -540.416 2223.88 -562.297 2253.42L-474.454 2221.58L-510.515 2293.25C-598.337 2296.65 -635.393 2334.89 -686.366 2344.45C-714.45 2349.71 -744.688 2349.82 -768.599 2360.58C-803.673 2376.33 -834.624 2391.81 -864.879 2411.7C-832.651 2407.29 -746.815 2355.07 -726.037 2374.78C-738.795 2394.84 -796.03 2409.24 -802.197 2428.5L-723.435 2399.74C-700.36 2391.31 -683.4 2375.5 -662.326 2364.75C-639.718 2353.23 -548.561 2310.21 -522.34 2316.49C-544.856 2368.87 -588.452 2366.39 -616.751 2400.81C-528.283 2360.44 -519.869 2366.52 -472.91 2307.25L-312.783 2245.06C-335.823 2273.26 -345.525 2308.78 -376.939 2330.25C-421.357 2360.62 -474.806 2385 -524.146 2411.31C-555.539 2428.05 -589.68 2435.14 -627.415 2428.48C-660.647 2422.6 -688.72 2431.49 -719.083 2439.23C-781.864 2455.23 -839.813 2449.43 -889.689 2453.77C-891.39 2453.91 -881.181 2459.34 -879.375 2459.31C-833.863 2459.16 -762.655 2455.95 -713.091 2451.38C-692.225 2449.45 -677.743 2439.53 -659.628 2454.43C-728.659 2470.09 -792.576 2483.11 -861.198 2495.57C-838.286 2516.3 -821.283 2494.09 -772.168 2493.4C-782.694 2508.29 -788.119 2510.86 -801.729 2523.45C-746.662 2517.86 -760.4 2496.5 -668.971 2478C-619.76 2468.02 -574.568 2455.43 -526.968 2438.88C-512.858 2508.24 -604.305 2502.05 -659.122 2569.35C-630.815 2576.88 -637.118 2546.85 -575.186 2523.59C-568.419 2521.05 -550.052 2520.83 -544.427 2523.8C-518.751 2537.27 -550.251 2571.6 -510.3 2592.88C-516.768 2580 -525.338 2567.97 -518.364 2556.52C-505.471 2535.37 -504.471 2515.75 -498.147 2493.7C-491.873 2471.71 -486.359 2447.6 -491.33 2425.84L-348.456 2341.97C-282.254 2303.12 -224.134 2108.48 -149.398 2070.8C-140.801 2143.6 -205.462 2179.06 -219.071 2212.5C-246.136 2279.18 -218.794 2308.34 -265.926 2339.88L-366.975 2407.51C-383.706 2418.73 -397.184 2430.02 -415.37 2440.64C-445.254 2458.11 -401.145 2454.41 -414.133 2473.11C-416.701 2476.8 -427.139 2475.96 -434.274 2475.2C-467.303 2486.9 -471.246 2512.35 -462.285 2534.99C-456.834 2548.71 -471.924 2568.19 -460.701 2581.47L-455.212 2549.97C-450.945 2525.37 -471.603 2485.89 -420.859 2486.94L-398.237 2461.37C-381.638 2442.61 -359.916 2430.59 -329.8 2414.62L-317.149 2447.64C-310.954 2438.89 -307.168 2428.11 -302.984 2416.54C-293.877 2391.27 -264.873 2370.69 -237.371 2352.76C-232.115 2387.91 -225.296 2417.94 -212.425 2451.74C-207.775 2463.9 -218.689 2480.19 -231.725 2490.25C-260.494 2512.46 -288.761 2533.84 -319.881 2554.42C-335.237 2564.59 -354.31 2571.66 -360.976 2585.93L-382.273 2631.28C-344.242 2622.31 -364.286 2588.47 -320.463 2565.45L-212.054 2508.55C-205.674 2498.61 -203.08 2490.53 -189.702 2479.41L-184.395 2550.02C-164.524 2535.42 -183.648 2512.92 -171.46 2498.66C-152.04 2475.93 -165.414 2463.57 -176.765 2442.98C-204.899 2392.07 -200.062 2334.96 -198.321 2280.87L-137.055 2314.16C-125.854 2320.26 -121.144 2329.98 -123.079 2340.32C-125.485 2353.29 -125.067 2365.46 -126.39 2378.38C-127.751 2392.08 -143.17 2407.49 -140.894 2422.59L-110.583 2382.26C-104.026 2373.57 -107.946 2361.8 -88.4496 2355.33C-71.734 2375.83 -65.6776 2400.6 -78.4486 2422.86C-90.0175 2443.04 -92.3315 2461.28 -94.7825 2483.51C-96.3456 2497.45 -122.116 2511.1 -129.637 2523.68C-141.873 2544.11 -155.98 2557.82 -185.865 2572.26C-122.177 2563.87 -134.621 2527.92 -83.119 2507.26C-70.7153 2511.29 -59.8037 2521.51 -59.2535 2529.4C-56.3429 2569.08 -157.209 2567.24 -103.102 2657.58C-94.8187 2620.62 -126.408 2599.46 -71.1748 2567.85C-11.4455 2533.67 -37.2542 2506.63 -59.4243 2466.29C-64.1673 2457.66 -56.3228 2442.89 -49.9768 2433.94C-28.7732 2404 -38.2944 2399.54 -36.0036 2374.05C-35.6146 2369.72 -4.79741 2367.31 1.91678 2426.87C8.9968 2489.66 16.5201 2444.62 37.8018 2502.09C49.9501 2485.54 31.5836 2473.96 22.601 2458.94C12.2354 2441.56 15.8183 2419.15 10.4344 2400.39L0.271199 2365.01L-51.4382 2329.34C-28.4564 2321.49 -1.5571 2322.28 20.5458 2329.14L34.2435 2354.15C38.1821 2343.26 38.8167 2332.29 37.2847 2321.36C-32.5987 2297 -67.3598 2327.75 -115.152 2297.72C-138.683 2282.92 -175.244 2269.64 -187.785 2248.84C-200.858 2227.12 -155.964 2173.74 -131.155 2161.16L-133.764 2197.98C-128.775 2214.81 -106.282 2229.25 -90.8702 2243.06C-71.8409 2260.12 -58.2248 2277.47 -34.7802 2293.22C-51.887 2262.12 -80.9634 2240.03 -107.879 2214.61C-135.949 2188.09 -87.2767 2170.91 -106.276 2140.79C-122.622 2114.81 -108.398 2054.51 -65.0601 2042.15L-19.3436 2053.74C13.2745 2104.34 -28.0578 2110.4 -19.1277 2175.71C-7.12816 2263.18 49.5475 2231.43 12.8026 2278.65C91.5923 2239.61 -25.4653 2232.53 13.6606 2144.28C55.6571 2131.91 69.2669 2193.32 103.826 2204.25C79.0287 2149.4 81.1336 2160.62 45.0893 2126.62C6.99911 2090.71 52.9756 2078.71 30.1716 2034.57L47.4164 2017.33C82.7227 2035.63 101.751 2058.54 124.614 2082.36C175.226 2135.07 106.616 2130.44 143.377 2175.97C166.161 2204.15 115.611 2220.21 124.422 2249.08L161.097 2203.77C176.707 2184.48 150.123 2166.26 166.186 2155.23C190.185 2176.14 234.434 2219.02 222.484 2241.04C212.234 2259.9 181.577 2274.45 159.816 2287.21C131.67 2303.69 108.766 2319 82.4485 2336.77C70.3091 2344.95 46.7552 2355.49 37.8772 2364.26L18.9845 2440.93C48.381 2428.07 34.6335 2382.45 66.5275 2370.77C86.8331 2363.34 60.351 2398.33 93.4192 2436.27C113.061 2458.86 104.931 2483.87 75.3859 2500.07C34.6974 2522.35 17.4086 2554.84 33.0674 2588.72C47.3843 2619.64 24.7673 2630.65 34.2812 2658.38L42.7188 2630.27C59.6905 2573.66 31.0129 2577.43 51.9586 2544.54C82.5978 2546.73 104.85 2568.11 96.6661 2587.07C88.0353 2607.06 93.4115 2625.37 116.306 2639.19C101.261 2616.83 98.953 2602.82 113.546 2584.43C136.622 2555.35 71.8456 2519.01 110.714 2507.76C127.247 2502.98 142.711 2507.95 148.858 2520.16C162.912 2547.81 140.291 2591.18 207.088 2645.74C204.076 2629.84 192.917 2617.24 184.207 2603.07C152.714 2551.87 196.369 2539.95 152.326 2499.99C121.076 2471.65 147.42 2467.21 121.461 2425.61C106.543 2401.68 106.533 2374.42 127.813 2351.84C145.826 2357.95 141.675 2368.54 148 2376.12L176.83 2410.69C183.373 2398.26 166.919 2386.85 165.546 2376.15L159.755 2331.07C158.443 2320.92 168.495 2311.46 180.297 2304.62L233.377 2273.89C239.292 2329 241.12 2383.58 218.919 2436.23C212.874 2450.62 194.797 2461.55 206.28 2477.92C212.418 2486.63 218.811 2501.11 218.042 2510.31C216.03 2534.02 234.145 2545.99 249.795 2564.53C267.394 2585.39 275.429 2611.17 290.242 2632.08C283.437 2605.83 273.539 2582.7 259.891 2560.55C252.933 2549.2 231.901 2538.61 231.778 2525.62L231.11 2472.49C246.621 2483.07 247.621 2490.13 255.416 2499.18C289.584 2523.25 342.813 2536.54 371.549 2562.79C391.38 2581.39 392.907 2609.81 440.351 2610.99C398.818 2599.57 398.327 2580.32 383.347 2561.66C354.388 2525.59 242.72 2478.34 252.758 2447.31C264.168 2412.13 270.643 2380.92 275.326 2344.67C305.294 2361.64 334.237 2381.99 343.338 2406.77C348.486 2420.84 351.893 2432.75 367.729 2441.29C361.46 2427.99 359.094 2416.6 370.368 2403.2C396.749 2415.67 423.825 2429.56 439.821 2447.28C450.029 2458.6 455.555 2470.68 474.267 2472.5C506.885 2475.68 496.461 2499.37 497.452 2514.8L500.993 2569.95C497.801 2573.34 496.171 2574.53 497.52 2574.98L505.465 2577.8L506.787 2514.5C507.087 2499.15 515.669 2485.22 498.887 2472.75L468.565 2450.28L466.647 2461.65L455.142 2455.89C438.224 2447.44 485.624 2440.12 457.202 2426.02C437.734 2416.35 424.227 2405.29 407.012 2394.64L306.594 2332.56C254.011 2300.07 280.776 2275.38 253.019 2207.61C237.819 2170.45 168.795 2136.16 177.398 2064.23C252.96 2100.57 317.299 2292.43 386.427 2329.74L532.029 2408.35C527.045 2430.31 532.732 2454.61 541.532 2476.88C548.335 2494.14 546.331 2512.45 558.02 2528.75C566.694 2540.84 565.244 2552.4 564.735 2567.65C590.316 2540.13 566.65 2520.57 585.483 2505.64C589.555 2502.41 606.392 2500.28 612.664 2501.83C677.758 2517.88 675.006 2555.46 705.547 2546.04L670.309 2516.89C634.286 2487.03 553.075 2478.95 568.259 2420.41C617.595 2435.37 663.147 2446.42 712.364 2454.57C803.605 2469.66 796.927 2495.08 844.752 2494.42C831.14 2483.26 824.084 2478.14 814.549 2466.95C857.623 2463.1 884.828 2487.36 902.033 2464.88L703.09 2431.67C704.458 2415.41 756.274 2427.61 808.145 2428.17L901.773 2429.23C911.012 2429.34 923.185 2426.06 927.296 2422.08C869.325 2420.95 813.786 2426.1 759.954 2413.73C727.053 2406.14 697 2399.08 660.705 2406.96C629.963 2413.65 598.45 2408.72 571.184 2395.79C518.214 2370.69 462.484 2347.09 414.85 2317.3C381.095 2296.18 369.554 2261.68 346.999 2231.83C394.71 2257.23 461.806 2266.74 507.4 2292.04C561.856 2346.11 564.347 2343.96 656.011 2377.44C621.8 2345.03 581.645 2347.57 558.949 2297.75C584.987 2290.56 686.732 2333.97 703.459 2343.3C730.192 2358.22 753.037 2372.14 784.531 2381.94L848.09 2401.68C832.132 2380.26 775.302 2367.57 765.376 2348.79C776.076 2340.92 795.029 2344.7 806.917 2348.75L895.631 2378.81C879.987 2363.53 858.67 2357.34 839.036 2347.07C763.316 2307.56 756.096 2340.38 664.843 2300.9C628.082 2285.01 588.037 2276.08 545.175 2274.34L507.062 2204.54L598.771 2234.62C575.564 2205.87 501.04 2193.56 494.506 2168.05C491.406 2155.96 498.52 2140.73 513.943 2134.47C546.616 2146.73 580.965 2157.49 610.036 2170.36C639.835 2183.55 662.679 2197.44 702.266 2200.8C766.918 2206.28 725.053 2243.99 770.999 2265.78L770.934 2247.2C770.879 2244.07 777.052 2237.06 781.494 2237.29C802.515 2238.32 811.208 2275.18 869.395 2312.44L931.706 2352.36C960.617 2370.87 999.441 2374.86 1039.69 2372.05C1044.59 2371.69 1049.6 2371.77 1054.5 2371.82C1049.23 2368.38 1044.21 2364.72 1039.35 2360.96L1028.87 2360.84C999.501 2360.53 971.431 2354.76 958.765 2335.66C970.059 2332.3 981.696 2330.83 994.432 2330.27C987.209 2327.4 979.732 2324.74 971.288 2322.85C956.833 2319.6 944.12 2315.57 932.613 2309.68C909.926 2304.8 890.437 2296.9 872.494 2283C855.389 2269.72 834.296 2258.62 829.769 2238.73L833.063 2238.26C832.279 2237.66 831.597 2236.99 830.864 2236.39C808.716 2226.95 787.329 2216.74 769.616 2204.19C761.256 2201.17 752.791 2198.12 744.076 2195.48L670.41 2173.19C642.915 2164.89 623.578 2150.9 597.391 2140.64C543.667 2119.63 500.228 2090.68 462.958 2057.41L464.248 2057.39C445.138 2047.58 427.251 2036.87 413.613 2024.18C370.69 2012.99 372.135 1995.24 304.748 1971.95C213.895 1940.6 209.935 1965.06 139.756 1938.55C140.998 1938.74 142.188 1938.89 143.429 1939.03C138.744 1936.7 135.129 1933.6 133.507 1929.37C131.885 1925.15 132.58 1920.61 135.142 1916.59C134.075 1914.56 133.162 1912.51 132.555 1910.27C132.021 1909.22 131.693 1908.18 131.417 1907.16C130.747 1907.17 130.076 1907.18 129.354 1907.2C108.729 1869.69 107.327 1884 129.842 1846.35L86.0383 1820.17L-110.786 1790.12C-107.304 1812.28 -151.502 1881.91 -159.376 1892.02L-178.541 1902.69M-97.5749 1979.71C-109.3 1993.89 -121.775 2006.46 -139.765 2016.47C-169.92 2033.19 -182.614 2053.96 -203.102 2074.63C-223.032 2094.75 -260.782 2107.93 -284.507 2126.44C-336.896 2167.3 -378.418 2147.64 -405.9 2175.61L-319.732 2157.27L-259.157 2136.07C-256.445 2158.41 -270.901 2190.61 -300.693 2207.46C-350.208 2235.47 -401.264 2258.07 -463.661 2278.34C-459.71 2262.22 -448.944 2249.27 -436.13 2235.4L-431.757 2205.01C-419.81 2194.7 -419.616 2188.06 -424.558 2176.92C-432.183 2159.84 -436.917 2145.8 -458.371 2131.78C-424.453 2102.95 -383.751 2078.53 -334.972 2061.48C-314.808 2078.52 -364.754 2096.64 -359.021 2120.66C-321.053 2081.42 -321.101 2096.42 -286.955 2054.08C-252.101 2010.91 -195.215 2003.08 -128.516 1986.85M499.548 2261.9C437.056 2244.17 383.061 2222.46 331.086 2195.22C302.703 2180.34 287.032 2148.7 288.916 2126.52L348.531 2145.04L438.453 2161.44C411.261 2135 376.091 2154.16 323.096 2121.7C295.764 2104.96 269.455 2090.66 239.973 2074.91C226.639 2067.79 219.647 2054.51 210.024 2044.23C178.213 2010.32 138.296 2005.78 118.768 1968.96C177.425 1994.72 205.021 1985.12 269.561 2010.87C301.624 2023.65 313.699 2047.32 335.943 2065.27C355.309 2080.93 372.777 2094.23 390.189 2110.26C392.124 2082.16 340.12 2065.13 364.407 2049.23C390.691 2056.19 483.531 2100.88 485.054 2117.18C466.159 2128.57 439.912 2180.03 463.504 2189.45C471.439 2245.04 480.014 2212.94 499.599 2261.87L499.548 2261.9Z" fill="#862600"/>
<mask id="path-12-inside-1_156_125" fill="white">
<path d="M90.5 1832V1228.5H-13V1821L90.5 1832Z"/>
</mask>
<path d="M90.5 1228.5H990.5V328.5H90.5V1228.5ZM90.5 1832L-4.61649 2726.96L990.5 2832.72V1832H90.5ZM-13 1821H-913V2630.42L-108.116 2715.96L-13 1821ZM-13 1228.5V328.5H-913V1228.5H-13ZM90.5 1228.5H-809.5V1832H90.5H990.5V1228.5H90.5ZM90.5 1832L185.616 937.04L82.1165 926.04L-13 1821L-108.116 2715.96L-4.61649 2726.96L90.5 1832ZM-13 1821H887V1228.5H-13H-913V1821H-13ZM-13 1228.5V2128.5H90.5V1228.5V328.5H-13V1228.5Z" fill="#862600" mask="url(#path-12-inside-1_156_125)"/>
<mask id="path-14-inside-2_156_125" fill="white">
<path d="M-11 1229H90L111.5 333L150 189L111.5 205.5L-11 295V1229Z"/>
</mask>
<path d="M90 1229V2129H968.663L989.741 1250.59L90 1229ZM-11 1229H-911V2129H-11V1229ZM-11 295L-541.941 -431.706L-911 -162.067V295H-11ZM111.5 205.5L-243.027 -621.731L-336.94 -581.482L-419.441 -521.206L111.5 205.5ZM150 189L1019.46 421.46L1497.84 -1367.82L-204.527 -638.231L150 189ZM111.5 333L-757.961 100.54L-785.668 204.171L-788.241 311.41L111.5 333ZM90 1229V329H-11V1229V2129H90V1229ZM-11 1229H889V295H-11H-911V1229H-11ZM-11 295L519.941 1021.71L642.441 932.206L111.5 205.5L-419.441 -521.206L-541.941 -431.706L-11 295ZM111.5 205.5L466.027 1032.73L504.527 1016.23L150 189L-204.527 -638.231L-243.027 -621.731L111.5 205.5ZM150 189L-719.461 -43.46L-757.961 100.54L111.5 333L980.961 565.46L1019.46 421.46L150 189ZM111.5 333L-788.241 311.41L-809.741 1207.41L90 1229L989.741 1250.59L1011.24 354.59L111.5 333Z" fill="#862600" mask="url(#path-14-inside-2_156_125)"/>
</svg>
