<?xml version="1.0" encoding="UTF-8"?>
<svg id="Layer_1" data-name="Layer 1" xmlns="http://www.w3.org/2000/svg" viewBox="0 0 242.2 374.68">
  <defs>
    <style>
      .cls-1 {
        fill: #7e241a;
      }

      .cls-2 {
        fill: #e9a14a;
      }

      .cls-3 {
        fill: #fcf1df;
      }
    </style>
  </defs>
  <path class="cls-3" d="M123.71,179.41L229.31,22.39s-105.61-42.03-210.61,1.53l105.02,155.5Z"/>
  <polygon class="cls-3" points="71.49 258.66 181.53 266.42 123.71 179.41 71.49 258.66"/>
  <path class="cls-1" d="M71.85,256.52l-63.29,92.1s102.32,50.59,229.91.37l-60.32-85.05-106.29-7.42Z"/>
  <path class="cls-2" d="M19.13,24.03c62.67,91.66,159.59,232.85,221.49,323.5,0,0,1.58,2.31,1.58,2.31-9.57,5.71-19.92,9.67-30.46,13.05-48.09,14.96-99.85,14.47-149.01,5.32-21.29-3.94-42.22-9.62-62.73-16.49,0,0,2.71-4.02,2.71-4.02,31.58-46.73,79.68-118.15,110.98-164.23,35.89-52.98,75.81-110.49,112.46-163.22,0,0,1.71,5.67,1.71,5.67-8.1-3.23-16.73-6-25.19-8.38C149.2,2.63,90.88-.9,37.69,16.96c-2.03.72-7.51,2.73-9.48,3.44-2.02.81-7,2.84-9.07,3.63h0ZM18.26,23.8C75.01-5.67,143.76-4.95,204.54,10.68c10.37,2.68,20.57,5.89,30.59,9.86-.51.76-28.96,43.14-30.3,45.14-45.01,67.09-93.7,138.14-139.77,204.58,0,0-56.33,81.55-56.33,81.55,0,0-1.86-5.52-1.86-5.52,64.85,21.79,136.73,31.21,203.23,11.38,9.25-2.85,18.54-6.3,27.02-10.91,0,0-.82,3.69-.82,3.69C175.27,259.31,79.92,116.02,18.26,23.8h0Z"/>
</svg>