<svg width="486" height="486" viewBox="0 0 486 486" fill="none" xmlns="http://www.w3.org/2000/svg">
<path d="M191.503 166.168L198.217 166.543L198.591 173.256L190.384 182.955V188.176L197.844 182.582L206.424 189.296L234.774 187.804L248.574 200.487L245.218 212.795L238.875 228.09L232.162 232.566L231.043 244.129L226.194 241.518V234.43L224.328 232.193L213.511 240.398L202.694 239.279L210.527 234.058L213.511 225.478L206.424 223.986L189.265 245.247L192.995 256.438L194.115 271.733L193.741 279.565L188.519 282.177V289.264L181.059 284.788L163.153 287.025L176.583 294.86L174.344 305.676L159.797 314.628L142.638 306.049L138.162 301.2H129.956L125.106 288.145L120.63 278.82L110.186 274.717L102.726 276.209L95.6382 286.28L89.6702 291.501L85.1941 288.517L81.0906 283.669L73.2579 284.041L70.6465 295.605L65.051 294.113L59.4556 290.382L47.1468 293.74L46.4 301.2L36.7026 296.352L31.1072 295.977L25.8843 297.844L23.6471 292.248L39.6867 284.041L38.5673 270.613L34.4638 261.287L30.7346 254.201L24.7649 251.589L21.0356 252.709L20.663 266.882L24.7649 285.533L21.0356 287.398L16.5596 266.51L18.7968 246.741L20.663 219.138H24.3923L28.4957 225.106L33.7186 220.63L19.171 203.098L22.9003 174.375L32.2266 182.208L45.2822 184.447L54.9795 188.55L58.3361 196.383L68.0351 199.367L74.75 185.192L66.1704 176.613L72.8837 172.883L75.8694 167.288L83.3295 166.168L79.5986 160.2L91.5348 146.025L97.8771 152.74L98.9949 159.081L103.471 162.065L94.8931 178.105L94.1462 185.566L100.861 185.939L101.234 179.224L112.05 176.24L110.933 185.566L116.154 191.534L122.869 187.431L120.257 183.7L115.409 184.447L117.273 174.003L124.361 177.732H137.789L136.67 184.074L151.217 188.923L167.629 187.431L178.82 180.716L187.773 177.359L191.503 166.168Z" fill="#862600"/>
<path d="M46.0273 171.019L51.2502 180.716L55.3521 177.732V169.152L46.0273 171.019Z" fill="#862600"/>
<path d="M216.495 268.374V274.342L226.567 278.446L216.495 268.374Z" fill="#862600"/>
<path d="M223.955 284.041L217.24 290.382L220.598 300.453L225.447 299.708L228.059 284.414L223.955 284.041Z" fill="#862600"/>
<path d="M194.115 124.018L190.756 140.805L198.963 160.201H178.82L165.765 169.9L170.241 172.137L181.059 165.796H187.772L185.535 176.241L173.599 178.105L157.185 185.193L142.638 181.463L141.146 174.003L121.003 171.765L113.917 165.05L105.71 168.035L109.441 156.472L104.963 146.4L105.71 133.345L121.749 118.797L133.685 119.17L134.058 131.478L146.741 115.813L163.528 113.574L171.36 111.337L181.059 121.034L194.115 124.018Z" fill="#862600"/>
<path d="M30.3604 150.503L36.3284 132.225L60.575 103.13L66.9157 107.233L78.1066 106.861L87.8056 99.0262L97.8771 100.891H115.781L137.416 87.09L152.337 55.0108L166.512 34.8677L188.147 32.2563L215.376 9.87598L203.44 31.1385L204.186 41.9552L212.392 51.6542L210.9 62.4709L212.764 84.4786L203.067 95.6695L197.471 119.169H186.655L173.972 106.861L163.153 110.59L156.44 106.114L147.861 109.845L134.432 113.574L114.289 116.185L91.5348 116.558L84.0747 121.034L77.734 122.153L71.3917 128.868L62.8138 127.749L59.4556 135.956L58.3361 143.788L47.892 151.249L50.1308 164.304L42.2965 167.661L30.3604 150.503Z" fill="#862600"/>
<path d="M267.97 72.915L252.678 75.8991L244.098 83.7334L251.186 84.8512L253.797 90.8209L261.63 82.9866V78.5105L267.97 77.3911V72.915Z" fill="#862600"/>
<path d="M24.7649 300.828L16.5596 329.549L27.3763 338.129L28.1231 324.7L34.8364 323.954L37.4478 335.891L45.2822 344.843L61.3218 351.557L67.6625 390.351L60.9476 405.271L62.4396 425.787L86.6861 428.771L104.59 433.247L109.441 435.486L113.17 441.826L140.028 425.042L149.725 424.295L148.98 430.637L157.559 438.097L154.948 423.922L161.289 428.398L148.606 415.343L140.028 413.105L127.717 413.478L126.225 406.39L134.432 405.271L128.837 395.574L137.789 383.263L147.488 382.144L148.233 375.431L141.892 367.971L138.162 349.319L146.369 345.216L138.162 340.74L139.654 335.891L150.098 334.772L159.052 323.954L150.845 323.208L142.265 314.256H134.058L139.654 306.049L136.297 303.065L126.225 302.32L120.257 285.161L113.542 278.82H104.963L95.6382 291.502L90.7896 294.486L86.3135 293.741L78.8534 287.026L75.8694 288.89L73.2579 300.081L66.1704 298.962L59.0829 294.86L51.2502 296.352L49.384 304.557L41.9239 303.812L33.7186 298.589L24.7649 300.828Z" fill="#862600"/>
<path d="M47.5196 386.62L46.7744 403.034L52.7425 395.946L47.5196 386.62Z" fill="#862600"/>
<path d="M151.217 405.646L150.472 409.375L160.544 413.851L163.9 420.938L162.408 426.161L174.717 429.89L179.94 431.755L173.225 420.191L170.241 412.359L163.9 412.731L156.44 405.646H151.217Z" fill="#862600"/>
<path d="M160.169 334.771L153.829 342.604L158.305 342.978L164.273 360.135L167.257 360.51L168.004 377.294L183.296 386.619L187.772 385.874L190.384 397.065L198.591 398.183L200.828 403.405L214.256 406.39L219.479 407.136L229.178 401.541L234.774 400.794L240.367 386.993L237.758 372.446L240.367 364.239L226.567 347.827L226.939 344.47L234.399 342.604L228.431 329.922L227.312 339.62L223.21 345.215L215.376 350.438L209.035 350.064V342.604L211.646 335.144L204.186 326.191L199.709 329.175L182.924 330.667L175.464 335.516L173.972 340.739L162.036 341.112L160.169 334.771Z" fill="#862600"/>
<path d="M252.305 392.589L235.519 424.668L238.503 428.397L237.383 434.365L231.042 438.096L236.265 451.152L245.217 416.834L249.319 414.222L252.305 392.589Z" fill="#862600"/>
<path d="M197.844 422.057L211.646 434.738L216.867 433.246V436.23L208.662 438.841L197.471 426.533L197.844 422.057Z" fill="#862600"/>
<path d="M228.804 408.628L219.479 413.849L223.21 417.953L229.178 416.833L228.804 408.628Z" fill="#862600"/>
<path d="M279.534 265.39L285.503 271.732L298.186 273.597V285.16L288.861 288.517L288.114 298.216L278.042 304.929L270.582 301.945L262.75 304.556L249.32 302.692L265.359 313.883H256.035V316.493L266.853 322.461L270.955 326.191V333.652L264.987 333.279L265.734 336.263L273.194 337.755L278.042 355.659L267.226 359.018L269.837 363.119L274.313 359.763L276.178 363.866L272.074 365.358L282.893 375.057L279.907 381.025L296.321 379.159L315.345 384.382L317.582 378.786L322.805 385.127L328.026 386.619V393.334L320.566 392.961L330.637 400.794L331.012 407.136L342.573 409.001L348.169 414.222L358.613 408.628L352.272 398.929L358.241 393.334L344.066 390.35L346.677 383.635L353.392 384.754L352.645 379.906L379.503 366.85L378.011 354.914L358.613 344.096L358.241 333.279L367.193 322.835L360.479 319.851L354.511 321.715L351.153 309.779L358.613 306.048L355.256 300.453L347.424 298.961L345.932 312.016L333.621 312.763L335.113 303.437H325.789L323.924 313.509L319.448 313.136L319.074 305.303L309.376 304.929L318.701 297.843L314.598 294.112L308.257 295.604L313.106 290.009L316.09 288.144L311.614 282.176L310.868 276.581L318.701 278.073L316.09 273.969L320.193 267.256L307.51 273.224L279.534 265.39Z" fill="#862600"/>
<path d="M307.51 437.724L299.305 434.738L291.47 428.397L285.13 420.564L275.058 418.698L263.867 423.176V429.517L270.582 434.365L267.226 441.825L261.257 439.216L258.646 445.929L282.893 453.389L300.797 467.191L309.749 459.731L331.757 460.476L332.876 454.881L327.281 450.405L332.129 445.929L319.448 427.278L312.733 432.128V437.349L307.51 437.724Z" fill="#862600"/>
<path d="M324.296 419.445L329.518 419.817L333.621 417.206L336.979 423.548L339.217 420.564L345.932 426.532L354.511 426.905L359.36 433.246L345.185 452.644L343.693 472.787L336.605 461.968V452.271L333.995 449.659L336.979 445.183L328.773 431.754L322.058 424.668L324.296 419.445Z" fill="#862600"/>
<path d="M364.208 400.422L369.804 408.629L374.653 409.001L373.907 411.239L371.758 412.006L368.685 413.105L359.36 412.731L355.629 420.565L360.479 425.786L372.788 414.597L389.2 413.85L387.708 406.39L382.114 405.645L372.043 403.779L364.208 400.422Z" fill="#862600"/>
<path d="M328.026 267.629L356.376 245.247L372.043 248.233L386.216 252.709L380.995 262.034L380.248 278.073L386.216 288.89L387.708 303.065L394.796 314.628L390.692 321.716L384.352 316.493L372.416 315.748L369.059 319.851L363.836 316.12L357.121 316.493L355.256 311.272L362.717 306.049L358.241 298.216L349.661 295.605L345.185 277.701L341.456 265.39L327.653 270.613L328.026 267.629Z" fill="#862600"/>
<path d="M332.503 274.342L335.487 289.636L330.265 291.501L331.011 294.859L323.924 295.232L327.653 298.588L342.573 299.708L340.336 290.381L332.503 274.342Z" fill="#862600"/>
<path d="M442.169 329.923L438.438 338.501L439.185 354.168L452.613 363.494L472.382 367.223L471.265 357.899L476.113 350.064L456.343 340.74L442.169 329.923Z" fill="#862600"/>
</svg>
